# Blender v2.76 (sub 0) OBJ File: ''
# www.blender.org
mtllib bot_lanes_right.mtl
o rightdivider_Cube.001
v -10.215647 1.128991 3.132287
v -10.671409 1.124635 3.010958
v -9.215813 1.124885 4.688009
v -9.214170 -0.875110 4.680403
v -10.642948 -0.874854 2.975829
v -10.187187 -0.870498 3.097157
v -8.212339 -0.872931 5.028533
v -6.760292 1.127069 5.067895
v -6.760292 -0.872931 5.067895
v -8.212339 -0.872931 5.028533
v -8.212416 1.127069 5.028533
v -8.212416 1.127069 5.028533
v -10.671409 1.124635 3.010958
v -10.642948 -0.874854 2.975829
vt 0.205944 0.098770
vt 0.000086 0.000086
vt 0.562023 0.101815
vt 0.697611 0.281581
vt 0.351059 0.128809
vt 0.431095 0.076613
vt 0.999914 0.343788
vt 0.000086 0.580588
vt 0.325889 0.343961
vt 0.000086 0.343961
vt 0.909957 0.315591
vt 0.689056 0.197486
vt 0.662668 0.343788
vt 0.073491 0.022702
vt 0.291118 0.243916
vt 0.325889 0.580601
vn -0.012400 0.999900 0.010600
vn -0.755200 -0.003100 0.655500
vn 0.012400 -0.999900 -0.010500
vn 0.699000 0.022500 -0.714700
vn 0.027100 0.000000 -0.999600
vn -0.328200 -0.003900 0.944600
vn -0.480400 0.847800 0.224600
vn -0.543100 -0.571300 0.615300
vn -0.468700 0.850500 0.238700
vn 0.257000 0.020600 -0.966200
vn 0.395500 -0.613100 0.683800
vn 0.046500 0.924100 0.379300
vn 0.324900 -0.595000 0.735200
vn 0.494600 -0.383400 -0.780000
vn -0.018100 0.201300 0.979400
vn -0.003900 1.000000 0.005200
vn -0.766200 -0.022200 0.642200
vn -0.058400 0.868300 0.492700
vn 0.579500 -0.344600 0.738500
vn -0.003000 -0.020800 0.999800
vn -0.542500 -0.571400 0.615700
vn 0.004100 -1.000000 -0.005400
vn 0.687400 0.000000 -0.726200
vn -0.321400 -0.000000 0.947000
usemtl Material.010
s 1
f 1/1/1 2/2/1 3/3/1
f 2/2/2 4/4/2 3/3/2
f 4/4/3 5/5/3 6/6/3
f 1/1/4 7/7/4 6/6/4
f 7/8/5 8/9/5 9/10/5
f 10/11/6 3/3/6 4/4/6
f 11/12/7 7/7/8 12/13/9
f 13/14/10 6/6/10 5/5/10
f 13/14/11 14/15/12 2/2/13
f 2/2/13 1/1/14 13/14/11
f 1/1/15 11/12/7 12/13/9
f 11/12/16 1/1/16 3/3/16
f 14/15/17 4/4/17 2/2/17
f 5/5/18 4/4/19 14/15/12
f 4/4/20 7/7/8 10/11/21
f 7/7/22 4/4/22 6/6/22
f 12/13/23 7/7/23 1/1/23
f 12/16/5 8/9/5 7/8/5
f 11/12/24 3/3/24 10/11/24
f 10/11/21 7/7/8 11/12/7
f 1/1/10 6/6/10 13/14/10
f 5/5/18 14/15/12 13/14/11
