# Blender v2.76 (sub 0) OBJ File: ''
# www.blender.org
mtllib fthis.mtl
o Cube.001_Cube.006
v -0.601332 0.767561 2.408401
v 0.373866 0.030955 0.127207
v 0.373866 0.769699 0.127207
v 0.311459 0.030955 -0.054237
v -0.458573 0.068760 0.070794
v -0.213748 0.030955 -0.232938
v 0.361965 0.769699 0.080700
v 0.361965 0.030955 0.080700
v -0.601332 0.028817 2.408401
v 0.311459 0.769699 -0.054237
v -0.458573 0.807504 0.070794
v -0.336070 0.030955 -0.156806
v -0.213748 0.769699 -0.232938
v -0.089177 0.769699 -0.272496
v -0.089178 0.030955 -0.272496
v 0.031395 0.769699 -0.273497
v 0.031395 0.030955 -0.273497
v 0.141923 0.769699 -0.235890
v 0.141923 0.030955 -0.235890
v 0.236865 0.769699 -0.161561
v 0.236865 0.030955 -0.161561
v -0.336070 0.769699 -0.156806
vt 0.000000 0.000000
vt 1.000000 0.000000
vt 1.000000 1.000000
vn 0.919500 -0.000000 0.393100
vn -0.033100 -0.994700 0.097200
vn 0.968800 0.000000 -0.247900
vn -0.998100 0.000000 -0.061000
vn 0.046200 0.998800 -0.017300
vn -0.528400 0.000000 -0.849000
vn -0.302700 0.000000 -0.953100
vn -0.008300 0.000000 -1.000000
vn 0.322100 0.000000 -0.946700
vn 0.616400 0.000000 -0.787400
vn 0.821100 -0.000000 -0.570700
vn 0.936500 -0.000000 -0.350500
vn -0.880600 0.000000 -0.473900
vn -0.044000 -0.998800 -0.019800
vn -0.046200 -0.998900 0.011800
vn 0.000000 -1.000000 -0.000000
vn 0.149100 -0.959300 0.239600
vn -0.046200 -0.998800 0.017300
vn 0.044000 0.998800 0.019800
vn -0.149100 0.959300 -0.239600
vn 0.000000 1.000000 -0.000000
vn 0.033100 0.994700 -0.097200
vn 0.046200 0.998900 -0.011800
usemtl Material.007
s 1
f 1/1/1 2/2/1 3/3/1
f 4/1/2 5/2/2 6/3/2
f 7/1/3 2/2/3 8/3/3
f 1/1/4 5/2/4 9/3/4
f 10/1/5 11/2/5 7/3/5
f 12/1/6 13/2/6 6/3/6
f 6/1/7 14/2/7 15/3/7
f 15/1/8 16/2/8 17/3/8
f 17/1/9 18/2/9 19/3/9
f 19/1/10 20/2/10 21/3/10
f 21/1/11 10/2/11 4/3/11
f 4/1/12 7/2/12 8/3/12
f 22/1/13 5/2/13 11/3/13
f 9/1/1 2/2/1 1/3/1
f 5/1/14 2/2/14 9/3/14
f 2/1/15 5/2/15 8/3/15
f 4/1/16 6/2/16 21/3/16
f 19/1/16 15/2/16 17/3/16
f 15/1/16 21/2/16 6/3/16
f 12/1/17 6/2/17 5/3/17
f 8/1/18 5/2/18 4/3/18
f 19/1/16 21/2/16 15/3/16
f 3/1/3 2/2/3 7/3/3
f 11/1/4 5/2/4 1/3/4
f 1/1/19 3/2/19 11/3/19
f 22/1/20 11/2/20 13/3/20
f 14/1/21 18/2/21 16/3/21
f 18/1/21 14/2/21 20/3/21
f 10/1/22 13/2/22 11/3/22
f 3/1/23 7/2/23 11/3/23
f 13/1/21 10/2/21 20/3/21
f 20/1/21 14/2/21 13/3/21
f 22/1/6 13/2/6 12/3/6
f 13/1/7 14/2/7 6/3/7
f 14/1/8 16/2/8 15/3/8
f 16/1/9 18/2/9 17/3/9
f 18/1/10 20/2/10 19/3/10
f 20/1/11 10/2/11 21/3/11
f 10/1/12 7/2/12 4/3/12
f 12/1/13 5/2/13 22/3/13
