# Blender v2.76 (sub 0) OBJ File: ''
# www.blender.org
mtllib pt_bot_lanes.mtl
o rightdivider_Cube.000
v -10.215647 1.128991 3.132287
v -9.215813 1.124885 4.688009
v -10.671409 1.124635 3.010958
v -9.214170 -0.875110 4.680403
v -10.187187 -0.870498 3.097157
v -10.642948 -0.874854 2.975829
v -8.212339 -0.872931 5.028533
v -6.760292 -0.872931 5.067895
v -6.760292 1.127069 5.067895
v -8.212339 -0.872931 5.028533
v -8.212416 1.127069 5.028533
v -8.212416 1.127069 5.028533
v -10.671409 1.124635 3.010958
v -10.642948 -0.874854 2.975829
vt 0.205944 0.098770
vt 0.000086 0.000086
vt 0.562023 0.101815
vt 0.697611 0.281581
vt 0.351059 0.128809
vt 0.431095 0.076613
vt 0.999914 0.343788
vt 0.000086 0.580588
vt 0.325889 0.343961
vt 0.000086 0.343961
vt 0.909957 0.315591
vt 0.689056 0.197486
vt 0.662668 0.343788
vt 0.073491 0.022702
vt 0.291118 0.243916
vt 0.325889 0.580601
vn -0.012400 0.999900 0.010600
vn -0.755200 -0.003100 0.655500
vn 0.012400 -0.999900 -0.010500
vn 0.699000 0.022500 -0.714700
vn 0.027100 0.000000 -0.999600
vn -0.328200 -0.003900 0.944600
vn -0.492400 0.808200 0.323100
vn -0.542800 -0.568000 0.618700
vn -0.484100 0.809600 0.331900
vn 0.257000 0.020600 -0.966200
vn 0.447500 -0.674200 0.587500
vn -0.059600 0.901100 0.429500
vn 0.377200 -0.656600 0.653100
vn 0.495800 -0.283400 -0.820900
vn -0.012000 0.129200 0.991600
vn -0.003900 1.000000 0.005200
vn -0.766200 -0.022200 0.642200
vn -0.178900 0.850600 0.494400
vn 0.477200 -0.816800 0.324200
vn -0.002000 -0.013800 0.999900
vn -0.542400 -0.568000 0.619000
vn 0.004100 -1.000000 -0.005400
vn 0.687400 0.000000 -0.726200
vn -0.321400 -0.000000 0.947000
usemtl Material.008
s 1
f 1/1/1 3/2/1 2/3/1
f 3/2/2 4/4/2 2/3/2
f 4/4/3 6/5/3 5/6/3
f 1/1/4 7/7/4 5/6/4
f 7/8/5 9/9/5 8/10/5
f 10/11/6 2/3/6 4/4/6
f 11/12/7 7/7/8 12/13/9
f 13/14/10 5/6/10 6/5/10
f 13/14/11 14/15/12 3/2/13
f 3/2/13 1/1/14 13/14/11
f 1/1/15 11/12/7 12/13/9
f 11/12/16 1/1/16 2/3/16
f 14/15/17 4/4/17 3/2/17
f 6/5/18 4/4/19 14/15/12
f 4/4/20 7/7/8 10/11/21
f 7/7/22 4/4/22 5/6/22
f 12/13/23 7/7/23 1/1/23
f 12/16/5 9/9/5 7/8/5
f 11/12/24 2/3/24 10/11/24
f 10/11/21 7/7/8 11/12/7
f 1/1/10 5/6/10 13/14/10
f 6/5/18 14/15/12 13/14/11
o leftdivider_Cube.001
v -10.222399 1.167413 -3.837803
v -9.282433 1.167413 -5.426062
v -10.686281 1.167413 -3.708960
v -9.282433 -0.832587 -5.426062
v -10.686281 -0.832587 -3.708960
v -10.222399 -0.832587 -3.837803
v -10.686281 -0.832587 -3.708960
v -8.295310 -0.832587 -5.793104
v -8.295310 1.167413 -5.793104
v -6.846065 -0.832587 -5.859764
v -8.295310 -0.832587 -5.793104
v -8.295310 1.167413 -5.793104
v -10.686281 1.167413 -3.708960
v -6.846065 1.167413 -5.859764
vt 0.422255 0.190208
vt 0.647014 0.032574
vt 0.306408 0.086943
vt 0.544234 0.177312
vt 0.000076 0.284494
vt 0.261189 0.161123
vt 0.112484 0.222519
vt 0.675080 0.010112
vt 0.266312 0.477771
vt 0.000076 0.477771
vt 0.000076 0.284646
vt 0.679169 0.097360
vt 0.866888 0.000076
vt 0.999924 0.010112
vt 0.341819 0.145449
vt 0.266312 0.284646
vn -0.000000 1.000000 0.000000
vn -0.774200 0.000000 -0.633000
vn 0.000000 -1.000000 0.000000
vn 0.712200 -0.000000 0.701900
vn 0.045900 0.000000 0.998900
vn -0.348500 0.000000 -0.937300
vn 0.770100 0.496800 -0.400300
vn 0.743000 0.575000 -0.342400
vn 0.303200 0.399600 -0.865100
vn 0.267600 -0.000000 0.963500
vn -0.795500 -0.406800 -0.449100
vn -0.800700 -0.363900 -0.475900
vn -0.312300 0.514000 -0.798900
vn 0.072800 -0.707200 0.703300
vn -0.004100 -0.186000 0.982500
vn -0.331200 0.491900 -0.805200
vn -0.007700 -0.132700 0.991100
vn 0.007300 -0.183500 0.983000
vn 0.236500 0.476000 -0.847100
usemtl Material.009
s 1
f 15/17/25 16/18/25 17/19/25
f 16/18/26 18/20/26 19/21/26
f 18/20/27 20/22/27 21/23/27
f 15/17/28 20/22/28 22/24/28
f 23/25/29 22/26/29 24/27/29
f 25/28/30 18/20/30 16/18/30
f 26/29/31 23/30/32 22/24/33
f 21/23/34 20/22/34 15/17/34
f 27/31/35 17/19/36 19/21/37
f 17/19/36 27/31/35 15/17/38
f 15/17/39 23/30/32 26/29/31
f 26/29/25 16/18/25 15/17/25
f 17/19/26 16/18/26 19/21/26
f 21/23/40 19/21/37 18/20/41
f 18/20/42 25/28/43 22/24/33
f 22/24/27 20/22/27 18/20/27
f 23/30/28 15/17/28 22/24/28
f 28/32/29 23/25/29 24/27/29
f 26/29/30 25/28/30 16/18/30
f 25/28/43 26/29/31 22/24/33
f 27/31/34 21/23/34 15/17/34
f 21/23/40 27/31/35 19/21/37
