# Blender v2.76 (sub 0) OBJ File: 'pinballtablewip.blend'
# www.blender.org
mtllib fancy_rightflipper.mtl
o Cube.000_Cube.008
v -0.488732 0.078490 -2.433749
v -0.488732 0.717234 -2.433749
v 0.379375 0.080628 -0.109691
v 0.379375 0.719372 -0.109691
v -0.454787 0.118434 -0.092033
v -0.454787 0.757178 -0.092033
v 0.365325 0.080628 -0.063787
v -0.342996 0.080628 0.141015
v 0.308601 0.080628 0.068656
v 0.229099 0.080628 0.172397
v 0.130805 0.080628 0.242232
v 0.018648 0.080628 0.274661
v -0.101748 0.080628 0.268057
v -0.224345 0.080628 0.222751
v -0.342996 0.719372 0.141015
v 0.365325 0.719372 -0.063787
v -0.224345 0.719372 0.222751
v -0.101748 0.719372 0.268057
v 0.018648 0.719372 0.274661
v 0.130805 0.719372 0.242232
v 0.229099 0.719372 0.172397
v 0.308601 0.719372 0.068656
vn 0.936800 0.000000 -0.349900
vn -0.028500 -0.994700 -0.098600
vn 0.956200 0.000000 0.292700
vn -0.999900 0.000000 0.014500
vn 0.045400 0.998800 0.019400
vn -0.567300 -0.000000 0.823500
vn -0.346600 0.000000 0.938000
vn -0.054800 0.000000 0.998500
vn 0.277800 0.000000 0.960700
vn 0.579200 -0.000000 0.815200
vn 0.793700 0.000000 0.608300
vn 0.919200 0.000000 0.393700
vn -0.901600 0.000000 0.432500
vn -0.044900 -0.998800 0.017700
vn -0.045600 -0.998900 -0.013900
vn 0.000000 -1.000000 0.000000
vn 0.160100 -0.959300 -0.232400
vn -0.045400 -0.998800 -0.019400
vn 0.044900 0.998800 -0.017700
vn -0.160100 0.959300 0.232400
vn 0.000000 1.000000 0.000000
vn 0.028500 0.994700 0.098600
vn 0.045600 0.998900 0.013900
usemtl None
s off
f 2//1 4//1 3//1
f 9//2 14//2 5//2
f 16//3 7//3 3//3
f 2//4 1//4 5//4
f 22//5 16//5 6//5
f 8//6 14//6 17//6
f 14//7 13//7 18//7
f 18//8 13//8 12//8
f 12//9 11//9 20//9
f 11//10 10//10 21//10
f 10//11 9//11 22//11
f 9//12 7//12 16//12
f 15//13 6//13 5//13
f 1//1 2//1 3//1
f 5//14 1//14 3//14
f 3//15 7//15 5//15
f 9//16 10//16 14//16
f 11//16 12//16 13//16
f 13//16 14//16 10//16
f 8//17 5//17 14//17
f 7//18 9//18 5//18
f 11//16 13//16 10//16
f 4//3 16//3 3//3
f 6//4 2//4 5//4
f 2//19 6//19 4//19
f 15//20 17//20 6//20
f 18//21 19//21 20//21
f 20//21 21//21 18//21
f 22//22 6//22 17//22
f 4//23 6//23 16//23
f 17//21 21//21 22//21
f 21//21 17//21 18//21
f 15//6 8//6 17//6
f 17//7 14//7 18//7
f 19//8 18//8 12//8
f 19//9 12//9 20//9
f 20//10 11//10 21//10
f 21//11 10//11 22//11
f 22//12 9//12 16//12
f 8//13 15//13 5//13
