# Blender v2.76 (sub 0) OBJ File: 'pinballtablewip.blend'
# www.blender.org
mtllib fancy_leftflipper.mtl
o Cube.001_Cube.005
v -0.601332 0.028817 2.408401
v -0.601332 0.767561 2.408401
v 0.373866 0.030955 0.127207
v 0.373866 0.769699 0.127207
v -0.458573 0.068760 0.070794
v -0.458573 0.807504 0.070794
v 0.361965 0.030955 0.080700
v -0.336070 0.030955 -0.156806
v 0.311459 0.030955 -0.054237
v 0.236865 0.030955 -0.161561
v 0.141923 0.030955 -0.235890
v 0.031395 0.030955 -0.273497
v -0.089178 0.030955 -0.272496
v -0.213748 0.030955 -0.232938
v -0.336070 0.769699 -0.156806
v 0.361965 0.769699 0.080700
v -0.213748 0.769699 -0.232938
v -0.089177 0.769699 -0.272496
v 0.031395 0.769699 -0.273497
v 0.141923 0.769699 -0.235890
v 0.236865 0.769699 -0.161561
v 0.311459 0.769699 -0.054237
vn -0.919500 0.000000 -0.393100
vn 0.033100 0.994700 -0.097200
vn -0.968800 -0.000000 0.247900
vn 0.998100 0.000000 0.061000
vn -0.046200 -0.998800 0.017300
vn 0.528400 -0.000000 0.849000
vn 0.302700 -0.000000 0.953100
vn 0.008300 0.000000 1.000000
vn -0.322100 0.000000 0.946700
vn -0.616400 0.000000 0.787400
vn -0.821100 -0.000000 0.570700
vn -0.936500 -0.000000 0.350500
vn 0.880600 0.000000 0.473900
vn 0.044000 0.998800 0.019800
vn 0.046200 0.998900 -0.011800
vn 0.000000 1.000000 0.000000
vn -0.149100 0.959300 -0.239600
vn 0.046200 0.998800 -0.017300
vn -0.044000 -0.998800 -0.019800
vn 0.149100 -0.959300 0.239600
vn 0.000000 -1.000000 0.000000
vn -0.033100 -0.994700 0.097200
vn -0.046200 -0.998900 0.011800
usemtl None
s off
f 2//1 4//1 3//1
f 9//2 14//2 5//2
f 16//3 7//3 3//3
f 2//4 1//4 5//4
f 22//5 16//5 6//5
f 8//6 14//6 17//6
f 14//7 13//7 18//7
f 13//8 12//8 19//8
f 12//9 11//9 20//9
f 11//10 10//10 21//10
f 10//11 9//11 22//11
f 9//12 7//12 16//12
f 15//13 6//13 5//13
f 1//1 2//1 3//1
f 5//14 1//14 3//14
f 3//15 7//15 5//15
f 9//16 10//16 14//16
f 11//16 12//16 13//16
f 13//16 14//16 10//16
f 8//17 5//17 14//17
f 7//18 9//18 5//18
f 11//16 13//16 10//16
f 4//3 16//3 3//3
f 6//4 2//4 5//4
f 2//19 6//19 4//19
f 15//20 17//20 6//20
f 18//21 19//21 20//21
f 20//21 21//21 18//21
f 22//22 6//22 17//22
f 4//23 6//23 16//23
f 17//21 21//21 22//21
f 21//21 17//21 18//21
f 15//6 8//6 17//6
f 17//7 14//7 18//7
f 18//8 13//8 19//8
f 19//9 12//9 20//9
f 20//10 11//10 21//10
f 21//11 10//11 22//11
f 22//12 9//12 16//12
f 8//13 15//13 5//13
