# Blender v2.76 (sub 0) OBJ File: ''
# www.blender.org
mtllib fancy_leftflipper.mtl
o Cube.001_Cube.005
v -0.601332 0.767561 2.408401
v 0.373866 0.769699 0.127207
v 0.373866 0.030955 0.127207
v 0.311459 0.030955 -0.054237
v -0.213748 0.030955 -0.232938
v -0.458573 0.068760 0.070794
v 0.361965 0.769699 0.080700
v 0.361965 0.030955 0.080700
v -0.601332 0.028817 2.408401
v 0.311459 0.769699 -0.054237
v -0.458573 0.807504 0.070794
v -0.336070 0.030955 -0.156806
v -0.213748 0.769699 -0.232938
v -0.089178 0.030955 -0.272496
v -0.089177 0.769699 -0.272496
v 0.031395 0.030955 -0.273497
v 0.031395 0.769699 -0.273497
v 0.141923 0.030955 -0.235890
v 0.141923 0.769699 -0.235890
v 0.236865 0.030955 -0.161561
v 0.236865 0.769699 -0.161561
v -0.336070 0.769699 -0.156806
vn 0.919500 -0.000000 0.393100
vn -0.033100 -0.994700 0.097200
vn 0.968800 -0.000000 -0.247900
vn -0.998100 0.000000 -0.061000
vn 0.046200 0.998800 -0.017300
vn -0.528400 -0.000000 -0.849000
vn -0.302700 0.000000 -0.953100
vn -0.008300 -0.000000 -1.000000
vn 0.322100 -0.000000 -0.946700
vn 0.616400 -0.000000 -0.787400
vn 0.821100 -0.000000 -0.570700
vn 0.936500 -0.000000 -0.350500
vn -0.880600 -0.000000 -0.473900
vn -0.044000 -0.998800 -0.019800
vn -0.046200 -0.998900 0.011800
vn -0.000000 -1.000000 0.000000
vn 0.149100 -0.959300 0.239600
vn -0.046200 -0.998800 0.017300
vn 0.044000 0.998800 0.019800
vn -0.149100 0.959300 -0.239600
vn 0.000000 1.000000 -0.000000
vn 0.033100 0.994700 -0.097200
vn 0.046200 0.998900 -0.011800
usemtl None.001
s 1
f 1//1 3//1 2//1
f 4//2 6//2 5//2
f 7//3 3//3 8//3
f 1//4 6//4 9//4
f 10//5 11//5 7//5
f 12//6 13//6 5//6
f 5//7 15//7 14//7
f 14//8 17//8 16//8
f 16//9 19//9 18//9
f 18//10 21//10 20//10
f 20//11 10//11 4//11
f 4//12 7//12 8//12
f 22//13 6//13 11//13
f 9//1 3//1 1//1
f 6//14 3//14 9//14
f 3//15 6//15 8//15
f 4//16 5//16 20//16
f 18//16 14//16 16//16
f 14//16 20//16 5//16
f 12//17 5//17 6//17
f 8//18 6//18 4//18
f 18//16 20//16 14//16
f 2//3 3//3 7//3
f 11//4 6//4 1//4
f 1//19 2//19 11//19
f 22//20 11//20 13//20
f 15//21 19//21 17//21
f 19//21 15//21 21//21
f 10//22 13//22 11//22
f 2//23 7//23 11//23
f 13//21 10//21 21//21
f 21//21 15//21 13//21
f 22//6 13//6 12//6
f 13//7 15//7 5//7
f 15//8 17//8 14//8
f 17//9 19//9 16//9
f 19//10 21//10 18//10
f 21//11 10//11 20//11
f 10//12 7//12 4//12
f 12//13 6//13 22//13
