# Blender v2.76 (sub 0) OBJ File: ''
# www.blender.org
mtllib flipper-right.mtl
o Cube_Cube.002
v 0.049495 0.688265 0.940075
v 0.027141 -0.655812 0.940109
v 0.096778 0.687453 -0.058806
v 0.074424 -0.656623 -0.058772
v -7.781467 0.818496 0.569284
v -7.803821 -0.525580 0.569317
v 0.168958 0.686228 -1.056508
v 0.146604 -0.657849 -1.056475
vn 0.998700 -0.016600 0.047300
vn 0.997300 -0.016600 0.072200
vn -0.200300 0.003300 -0.979700
vn -0.047300 0.000800 0.998900
vn 0.016600 0.999900 -0.000000
vn -0.016600 -0.999900 0.000000
usemtl None
s off
f 4//1 3//1 1//1
f 8//2 7//2 3//2
f 6//3 5//3 7//3
f 2//4 1//4 5//4
f 3//5 7//5 5//5
f 6//6 8//6 4//6
f 2//1 4//1 1//1
f 4//2 8//2 3//2
f 8//3 6//3 7//3
f 6//4 2//4 5//4
f 1//5 3//5 5//5
f 2//6 6//6 4//6
