# Blender v2.77 (sub 0) OBJ File: ''
# www.blender.org
mtllib bluebox.mtl
o Cube
v 1.000000 -1.000000 -1.000000
v 1.000000 -1.000000 1.000000
v -1.000000 -1.000000 1.000000
v -1.000000 -1.000000 -1.000000
v 1.000000 1.000000 -0.999999
v 0.999999 1.000000 1.000001
v -1.000000 1.000000 1.000000
v -1.000000 1.000000 -1.000000
vn 0.0000 1.0000 0.0000
vn 1.0000 -0.0000 0.0000
vn 0.0000 -0.0000 1.0000
vn 0.0000 -1.0000 0.0000
vn -1.0000 -0.0000 -0.0000
vn 0.0000 0.0000 -1.0000
usemtl Material
s off
f 8//1 6//1 5//1
f 5//2 2//2 1//2
f 6//3 3//3 2//3
f 8//1 7//1 6//1
f 5//2 6//2 2//2
f 6//3 7//3 3//3
usemtl Material.001
f 2//4 4//4 1//4
f 3//5 8//5 4//5
f 1//6 8//6 5//6
f 2//4 3//4 4//4
f 3//5 7//5 8//5
f 1//6 4//6 8//6
