# Blender v2.76 (sub 0) OBJ File: 'crosshair.blend'
# www.blender.org
mtllib crosshair.mtl
o Cube.003_Cube.005
v -0.100000 -3.000000 0.100000
v -0.100000 -1.000000 0.100000
v -0.100000 -3.000000 -0.100000
v -0.100000 -1.000000 -0.100000
v 0.100000 -3.000000 0.100000
v 0.100000 -1.000000 0.100000
v 0.100000 -3.000000 -0.100000
v 0.100000 -1.000000 -0.100000
vt 0.333333 0.000000
vt 0.666667 0.000000
vt 0.666667 0.333333
vt 0.000000 0.000000
vt 0.333333 0.333333
vt 0.666667 0.666667
vt 0.333333 0.666667
vt 0.000000 0.666667
vt 0.000000 1.000000
vt 1.000000 0.000000
vt 1.000000 0.333333
vt 0.000000 0.333333
vt 0.333333 1.000000
vn -1.000000 -0.000000 0.000000
vn 0.000000 0.000000 -1.000000
vn 1.000000 -0.000000 0.000000
vn 0.000000 0.000000 1.000000
vn 0.000000 -1.000000 -0.000000
vn 0.000000 1.000000 0.000000
usemtl Blue
s off
f 4/1/1 3/2/1 1/3/1
f 8/4/2 7/1/2 3/5/2
f 6/5/3 5/3/3 7/6/3
f 2/5/4 1/7/4 5/8/4
f 1/9/5 3/8/5 7/7/5
f 6/2/6 8/10/6 4/11/6
f 2/5/1 4/1/1 1/3/1
f 4/12/2 8/4/2 3/5/2
f 8/7/3 6/5/3 7/6/3
f 6/12/4 2/5/4 5/8/4
f 5/13/5 1/9/5 7/7/5
f 2/3/6 6/2/6 4/11/6
o Cube.002_Cube.004
v 1.000000 -0.100000 0.100000
v 1.000000 0.100000 0.100000
v 1.000000 -0.100000 -0.100000
v 1.000000 0.100000 -0.100000
v 3.000000 -0.100000 0.100000
v 3.000000 0.100000 0.100000
v 3.000000 -0.100000 -0.100000
v 3.000000 0.100000 -0.100000
vt 0.333333 0.333333
vt 0.333333 0.000000
vt 0.666667 0.000000
vt 0.000000 0.000000
vt 0.333333 0.666667
vt 0.666667 0.333333
vt 0.000000 0.666667
vt 0.333333 1.000000
vt 1.000000 0.000000
vt 1.000000 0.333333
vt 0.000000 0.333333
vt 0.666667 0.666667
vt 0.000000 1.000000
vn -1.000000 0.000000 0.000000
vn 0.000000 0.000000 -1.000000
vn 1.000000 0.000000 0.000000
vn -0.000000 0.000000 1.000000
vn 0.000000 -1.000000 0.000000
vn 0.000000 1.000000 0.000000
usemtl Blue.001
s off
f 10/14/7 12/15/7 11/16/7
f 16/17/8 15/15/8 11/14/8
f 16/18/9 14/14/9 13/19/9
f 10/14/10 9/18/10 13/20/10
f 11/20/11 15/18/11 13/21/11
f 16/22/12 12/23/12 10/19/12
f 9/19/7 10/14/7 11/16/7
f 12/24/8 16/17/8 11/14/8
f 15/25/9 16/18/9 13/19/9
f 14/24/10 10/14/10 13/20/10
f 9/26/11 11/20/11 13/21/11
f 14/16/12 16/22/12 10/19/12
o Cube.001_Cube.003
v -0.100000 1.000000 0.100000
v -0.100000 3.000000 0.100000
v -0.100000 1.000000 -0.100000
v -0.100000 3.000000 -0.100000
v 0.100000 1.000000 0.100000
v 0.100000 3.000000 0.100000
v 0.100000 1.000000 -0.100000
v 0.100000 3.000000 -0.100000
vt 0.333333 0.000000
vt 0.666667 0.000000
vt 0.666667 0.333333
vt 0.000000 0.000000
vt 0.333333 0.333333
vt 0.666667 0.666667
vt 0.333333 0.666667
vt 0.000000 0.666667
vt 0.000000 1.000000
vt 1.000000 0.000000
vt 1.000000 0.333333
vt 0.000000 0.333333
vt 0.333333 1.000000
vn -1.000000 -0.000000 0.000000
vn 0.000000 0.000000 -1.000000
vn 1.000000 -0.000000 0.000000
vn 0.000000 0.000000 1.000000
vn 0.000000 -1.000000 0.000000
vn 0.000000 1.000000 -0.000000
usemtl Blue.002
s off
f 20/27/13 19/28/13 17/29/13
f 24/30/14 23/27/14 19/31/14
f 22/31/15 21/29/15 23/32/15
f 18/31/16 17/33/16 21/34/16
f 17/35/17 19/34/17 23/33/17
f 22/28/18 24/36/18 20/37/18
f 18/31/13 20/27/13 17/29/13
f 20/38/14 24/30/14 19/31/14
f 24/33/15 22/31/15 23/32/15
f 22/38/16 18/31/16 21/34/16
f 21/39/17 17/35/17 23/33/17
f 18/29/18 22/28/18 20/37/18
o Cube_Cube.001
v -3.026858 -0.100000 0.100000
v -3.026858 0.100000 0.100000
v -3.026858 -0.100000 -0.100000
v -3.026858 0.100000 -0.100000
v -1.026858 -0.100000 0.100000
v -1.026858 0.100000 0.100000
v -1.026858 -0.100000 -0.100000
v -1.026858 0.100000 -0.100000
vt 0.333333 0.333333
vt 0.333333 0.000000
vt 0.666667 0.000000
vt 0.000000 0.000000
vt 0.333333 0.666667
vt 0.666667 0.333333
vt 0.000000 0.666667
vt 0.333333 1.000000
vt 1.000000 0.000000
vt 1.000000 0.333333
vt 0.000000 0.333333
vt 0.666667 0.666667
vt 0.000000 1.000000
vn -1.000000 0.000000 0.000000
vn 0.000000 0.000000 -1.000000
vn 1.000000 -0.000000 0.000000
vn -0.000000 0.000000 1.000000
vn 0.000000 -1.000000 0.000000
vn 0.000000 1.000000 0.000000
usemtl Blue.003
s off
f 26/40/19 28/41/19 27/42/19
f 32/43/20 31/41/20 27/40/20
f 32/44/21 30/40/21 29/45/21
f 26/40/22 25/44/22 29/46/22
f 27/46/23 31/44/23 29/47/23
f 32/48/24 28/49/24 26/45/24
f 25/45/19 26/40/19 27/42/19
f 28/50/20 32/43/20 27/40/20
f 31/51/21 32/44/21 29/45/21
f 30/50/22 26/40/22 29/46/22
f 25/52/23 27/46/23 29/47/23
f 30/42/24 32/48/24 26/45/24
