# Blender v2.77 (sub 0) OBJ File: ''
# www.blender.org
mtllib fancier_lower_left_bumper.mtl
o Cube_Cube.003
v -1.404174 0.724808 0.954037
v 1.575182 0.724808 -0.633004
v 1.575182 -0.108239 -0.633005
v -1.404174 -0.108239 0.954037
v 1.586926 0.724808 -0.671522
v 1.436304 0.724808 -0.842816
v 1.594857 0.724808 -0.748173
v 1.569017 0.724808 -0.807643
v 1.513340 0.724808 -0.840877
v 1.436304 -0.108239 -0.842816
v 1.586926 -0.108239 -0.671522
v 1.513340 -0.108239 -0.840877
v 1.569017 -0.108239 -0.807643
v 1.594857 -0.108239 -0.748174
v -1.589741 0.724808 0.680753
v -1.451922 0.724808 0.939479
v -1.597783 0.724808 0.761230
v -1.574415 0.724808 0.838659
v -1.523196 0.724808 0.901252
v -1.451922 -0.108239 0.939479
v -1.589741 -0.108239 0.680752
v -1.523196 -0.108239 0.901251
v -1.574415 -0.108239 0.838659
v -1.597783 -0.108239 0.761230
v -0.887527 0.724808 -0.449420
v -1.376150 0.724808 -0.019764
v -0.988924 0.724808 -0.420433
v -1.091012 0.724808 -0.368492
v -1.186834 0.724808 -0.297135
v -1.269861 0.724808 -0.211227
v -1.334433 0.724808 -0.116620
v -1.376150 -0.108239 -0.019764
v -0.887527 -0.108239 -0.449420
v -1.334433 -0.108239 -0.116621
v -1.269860 -0.108239 -0.211227
v -1.186834 -0.108239 -0.297136
v -1.091012 -0.108239 -0.368492
v -0.988924 -0.108239 -0.420434
v 1.256171 0.915928 -0.543216
v -1.247070 0.915928 0.790209
v 1.139487 0.915928 -0.719499
v 1.204212 0.915928 -0.717870
v 1.250991 0.915928 -0.689947
v 1.272702 0.915928 -0.639981
v 1.266039 0.915928 -0.575579
v -1.409738 0.915928 0.628213
v -1.402982 0.915928 0.560596
v -1.390105 0.915928 0.693268
v -1.347071 0.915928 0.745858
v -1.287187 0.915928 0.777977
v -1.223524 0.915928 -0.027974
v -1.188473 0.915928 -0.109353
v -1.134220 0.915928 -0.188841
v -1.064462 0.915928 -0.261021
v -0.983952 0.915928 -0.320974
v -0.898178 0.915928 -0.364615
v -0.812985 0.915928 -0.388970
v 1.675396 1.011657 -0.661210
v -1.453527 1.011657 1.005503
v 1.529546 1.011657 -0.881554
v 1.610450 1.011657 -0.879518
v 1.668921 1.011657 -0.844616
v 1.696058 1.011657 -0.782161
v 1.687730 1.011657 -0.701662
v -1.656855 1.011657 0.803016
v -1.648409 1.011657 0.718499
v -1.632314 1.011657 0.884332
v -1.578524 1.011657 0.950067
v -1.503672 1.011657 0.990213
v -1.424096 1.011657 -0.017184
v -1.380284 1.011657 -0.118903
v -1.312471 1.011657 -0.218259
v -1.225276 1.011657 -0.308480
v -1.124644 1.011657 -0.383419
v -1.017431 1.011657 -0.437968
v -0.910944 1.011657 -0.468410
v 1.675396 1.130085 -0.661210
v -1.453527 1.130085 1.005503
v 1.529546 1.130085 -0.881554
v 1.610450 1.130085 -0.879518
v 1.668921 1.130085 -0.844616
v 1.696058 1.130085 -0.782161
v 1.687730 1.130085 -0.701662
v -1.656855 1.130085 0.803016
v -1.648409 1.130085 0.718499
v -1.632314 1.130085 0.884332
v -1.578524 1.130085 0.950067
v -1.503672 1.130085 0.990213
v -1.424096 1.130085 -0.017184
v -1.380284 1.130085 -0.118903
v -1.312471 1.130085 -0.218259
v -1.225276 1.130085 -0.308480
v -1.124644 1.130085 -0.383419
v -1.017431 1.130085 -0.437968
v -0.910944 1.130085 -0.468410
vn 0.9565 0.0000 0.2916
vn -0.1669 0.0000 -0.9860
vn 0.0000 -1.0000 -0.0000
vn 0.4701 -0.0000 0.8826
vn 0.0252 0.0000 -0.9997
vn 0.5125 0.0000 -0.8587
vn 0.9172 0.0000 -0.3985
vn 0.9947 0.0000 0.1029
vn 0.5229 0.8507 0.0541
vn -0.9950 0.0000 -0.0994
vn -0.9574 0.0000 0.2889
vn -0.7739 -0.0000 0.6333
vn -0.4727 -0.0000 0.8812
vn -0.2916 -0.0000 0.9565
vn -0.9184 0.0000 -0.3956
vn -0.8260 0.0000 -0.5637
vn -0.7191 0.0000 -0.6949
vn -0.5973 0.0000 -0.8020
vn -0.4535 0.0000 -0.8913
vn -0.2749 0.0000 -0.9615
vn -0.9565 0.0000 -0.2916
vn -0.0987 -0.9410 0.3237
vn -0.5269 0.4710 -0.7075
vn -0.6304 0.7526 0.1902
vn 0.3005 0.8101 -0.5034
vn 0.4409 0.3471 0.8277
vn -0.6918 0.5463 -0.4722
vn -0.7647 0.6007 -0.2332
vn 0.5406 0.8250 0.1648
vn -0.2002 0.7273 0.6565
vn -0.4095 0.4295 -0.8049
vn -0.4887 0.7754 0.3999
vn -0.1562 0.3527 -0.9226
vn -0.7360 0.6730 -0.0735
vn 0.4508 0.8708 -0.1959
vn -0.6188 0.5093 -0.5981
vn 0.0208 0.5646 -0.8251
vn -0.7466 0.5824 -0.3216
vn -0.2542 0.3804 -0.8892
vn -0.3098 0.7552 0.5777
vn 0.1929 -0.9776 -0.0838
vn -0.1187 -0.7032 -0.7010
vn -0.4314 -0.8828 -0.1858
vn 0.2280 -0.9734 0.0236
vn -0.4167 -0.8634 -0.2844
vn 0.2417 -0.9676 0.0737
vn -0.3894 -0.8407 -0.3763
vn -0.3845 -0.9223 -0.0384
vn -0.3470 -0.8139 -0.4660
vn -0.3028 -0.9486 0.0914
vn 0.3373 -0.6966 0.6332
vn -0.2836 -0.7803 -0.5574
vn -0.2294 -0.9551 0.1877
vn 0.0122 -0.8736 -0.4866
vn -0.1868 -0.7335 -0.6535
vn -0.1485 -0.9494 0.2768
vn 0.1363 -0.9640 -0.2283
vn -0.4327 -0.8918 -0.1319
vn 0.0000 1.0000 0.0000
vn 0.9565 -0.0000 0.2917
usemtl None
s off
f 11//1 2//1 3//1
f 33//2 6//2 10//2
f 33//3 32//3 36//3
f 2//4 4//4 3//4
f 10//5 9//5 12//5
f 9//6 13//6 12//6
f 13//7 7//7 14//7
f 7//8 11//8 14//8
f 5//9 44//9 45//9
f 15//10 24//10 17//10
f 24//11 18//11 17//11
f 18//12 22//12 19//12
f 22//13 16//13 19//13
f 20//14 1//14 16//14
f 32//15 31//15 34//15
f 31//16 35//16 34//16
f 35//17 29//17 36//17
f 29//18 37//18 36//18
f 28//19 38//19 37//19
f 27//20 33//20 38//20
f 21//21 26//21 32//21
f 50//22 59//22 69//22
f 28//23 54//23 55//23
f 17//24 48//24 46//24
f 9//25 43//25 8//25
f 1//26 39//26 40//26
f 30//27 52//27 53//27
f 26//28 47//28 51//28
f 2//29 45//29 39//29
f 1//30 50//30 16//30
f 27//31 55//31 56//31
f 18//32 49//32 48//32
f 25//33 41//33 6//33
f 15//34 46//34 47//34
f 8//35 44//35 7//35
f 29//36 53//36 54//36
f 6//37 42//37 9//37
f 31//38 51//38 52//38
f 25//39 56//39 57//39
f 16//40 49//40 19//40
f 68//13 88//13 87//13
f 44//41 62//41 63//41
f 41//42 76//42 60//42
f 51//43 71//43 52//43
f 44//44 64//44 45//44
f 52//45 72//45 53//45
f 45//46 58//46 39//46
f 53//47 73//47 54//47
f 46//48 66//48 47//48
f 54//49 74//49 55//49
f 48//50 65//50 46//50
f 39//51 59//51 40//51
f 55//52 75//52 56//52
f 49//53 67//53 48//53
f 42//54 60//54 61//54
f 56//55 76//55 57//55
f 49//56 69//56 68//56
f 43//57 61//57 62//57
f 47//58 70//58 51//58
f 95//59 92//59 89//59
f 61//6 81//6 62//6
f 66//21 89//21 70//21
f 59//14 88//14 69//14
f 62//7 82//7 63//7
f 60//2 95//2 79//2
f 70//15 90//15 71//15
f 63//8 83//8 64//8
f 71//16 91//16 72//16
f 64//1 77//1 58//1
f 72//17 92//17 73//17
f 65//10 85//10 66//10
f 73//18 93//18 74//18
f 67//11 84//11 65//11
f 58//4 78//4 59//4
f 74//19 94//19 75//19
f 68//12 86//12 67//12
f 60//5 80//5 61//5
f 75//20 95//20 76//20
f 11//60 5//60 2//60
f 33//2 25//2 6//2
f 21//3 32//3 4//3
f 34//3 35//3 32//3
f 36//3 37//3 33//3
f 38//3 33//3 37//3
f 10//3 12//3 11//3
f 13//3 14//3 12//3
f 11//3 3//3 10//3
f 4//3 20//3 21//3
f 22//3 23//3 24//3
f 24//3 21//3 20//3
f 35//3 36//3 32//3
f 33//3 10//3 3//3
f 14//3 11//3 12//3
f 20//3 22//3 24//3
f 32//3 33//3 4//3
f 33//3 3//3 4//3
f 2//4 1//4 4//4
f 10//5 6//5 9//5
f 9//6 8//6 13//6
f 13//7 8//7 7//7
f 7//8 5//8 11//8
f 5//9 7//9 44//9
f 15//10 21//10 24//10
f 24//11 23//11 18//11
f 18//12 23//12 22//12
f 22//13 20//13 16//13
f 20//14 4//14 1//14
f 32//15 26//15 31//15
f 31//16 30//16 35//16
f 35//17 30//17 29//17
f 29//18 28//18 37//18
f 28//19 27//19 38//19
f 27//20 25//20 33//20
f 21//21 15//21 26//21
f 50//22 40//22 59//22
f 28//23 29//23 54//23
f 17//24 18//24 48//24
f 9//25 42//25 43//25
f 1//26 2//26 39//26
f 30//27 31//27 52//27
f 26//28 15//28 47//28
f 2//29 5//29 45//29
f 1//30 40//30 50//30
f 27//31 28//31 55//31
f 18//32 19//32 49//32
f 25//33 57//33 41//33
f 15//34 17//34 46//34
f 8//35 43//35 44//35
f 29//36 30//36 53//36
f 6//37 41//37 42//37
f 31//38 26//38 51//38
f 25//39 27//39 56//39
f 16//40 50//40 49//40
f 68//13 69//13 88//13
f 44//41 43//41 62//41
f 41//42 57//42 76//42
f 51//43 70//43 71//43
f 44//44 63//44 64//44
f 52//45 71//45 72//45
f 45//46 64//46 58//46
f 53//47 72//47 73//47
f 46//48 65//48 66//48
f 54//49 73//49 74//49
f 48//50 67//50 65//50
f 39//51 58//51 59//51
f 55//52 74//52 75//52
f 49//53 68//53 67//53
f 42//54 41//54 60//54
f 56//55 75//55 76//55
f 49//56 50//56 69//56
f 43//57 42//57 61//57
f 47//58 66//58 70//58
f 89//59 85//59 78//59
f 84//59 86//59 87//59
f 87//59 88//59 84//59
f 78//59 95//59 89//59
f 83//59 82//59 80//59
f 81//59 80//59 82//59
f 79//59 95//59 77//59
f 94//59 93//59 95//59
f 92//59 91//59 89//59
f 90//59 89//59 91//59
f 84//59 88//59 85//59
f 77//59 95//59 78//59
f 80//59 79//59 83//59
f 93//59 92//59 95//59
f 85//59 88//59 78//59
f 83//59 79//59 77//59
f 61//6 80//6 81//6
f 66//21 85//21 89//21
f 59//14 78//14 88//14
f 62//7 81//7 82//7
f 60//2 76//2 95//2
f 70//15 89//15 90//15
f 63//8 82//8 83//8
f 71//16 90//16 91//16
f 64//1 83//1 77//1
f 72//17 91//17 92//17
f 65//10 84//10 85//10
f 73//18 92//18 93//18
f 67//11 86//11 84//11
f 58//4 77//4 78//4
f 74//19 93//19 94//19
f 68//12 87//12 86//12
f 60//5 79//5 80//5
f 75//20 94//20 95//20
