# Blender v2.76 (sub 0) OBJ File: ''
# www.blender.org
mtllib healthpack.mtl
o Cube_Cube.001
v -0.178938 -0.853276 0.533501
v -0.094729 -0.937485 0.568382
v -0.178938 -0.451075 0.935702
v -0.094729 -0.485956 1.019910
v -0.178938 0.576106 0.935702
v -0.094729 0.610987 1.019910
v -0.178938 0.978307 0.533501
v -0.094729 1.062515 0.568382
v -0.178938 -0.451075 -0.895881
v -0.094729 -0.485956 -0.980090
v -0.178938 -0.853276 -0.493680
v -0.094729 -0.937485 -0.528561
v -0.178938 0.978307 -0.493680
v -0.094729 1.062515 -0.444352
v -0.094729 1.002971 -0.588105
v -0.178938 0.576106 -0.895881
v -0.094729 0.610987 -0.980090
v 0.242653 -0.451075 0.935702
v 0.158444 -0.485956 1.019910
v 0.242653 -0.853276 0.533501
v 0.158444 -0.937485 0.568382
v 0.242653 0.978307 0.533501
v 0.158444 1.062515 0.568382
v 0.242653 0.576106 0.935702
v 0.158444 0.610987 1.019910
v 0.242653 -0.853276 -0.493680
v 0.158444 -0.937485 -0.528561
v 0.242653 -0.451075 -0.895881
v 0.158444 -0.485956 -0.980090
v 0.242653 0.576106 -0.895881
v 0.158444 0.610987 -0.980090
v 0.158444 1.062515 -0.444352
v 0.242653 0.978307 -0.493680
v 0.158444 1.002971 -0.588105
v 0.242653 0.978307 -0.493680
v 0.242653 0.576106 -0.895881
v 0.242653 -0.451075 -0.895881
v 0.242653 -0.853276 -0.493680
v 0.242653 0.576106 0.935702
v 0.242653 0.978307 0.533501
v 0.242653 -0.853276 0.533501
v 0.242653 -0.451075 0.935702
v 0.139329 0.978307 -0.493680
v 0.139329 0.576106 -0.895881
v 0.139329 -0.451075 -0.895881
v 0.139329 -0.853276 -0.493680
v 0.139329 0.576106 0.935702
v 0.139329 0.978307 0.533501
v 0.139329 -0.853276 0.533501
v 0.139329 -0.451075 0.935702
v -0.024577 0.576106 -0.895881
v -0.024577 0.978307 -0.493680
v -0.024577 -0.853276 -0.493680
v -0.024577 -0.451075 -0.895881
v -0.024577 0.978307 0.533501
v -0.024577 0.576106 0.935702
v -0.024577 -0.451075 0.935702
v -0.024577 -0.853276 0.533501
vt 0.887966 0.813910
vt 0.887966 0.986581
vt 0.832930 0.986581
vt 0.943002 0.356936
vt 0.943002 0.499088
vt 0.887966 0.499088
vt 0.887966 0.671759
vt 0.832930 0.813910
vt 0.906272 0.242924
vt 0.906272 0.356936
vt 0.851236 0.356936
vt 0.000000 0.000000
vt 0.906272 0.208286
vt 0.851236 0.208287
vt 0.851236 0.000000
vt 0.832930 0.671759
vt 0.832930 0.499088
vt 0.832930 0.356936
vt 0.887966 0.356936
vt 0.832930 0.225605
vt 0.851236 0.242924
vt 0.924578 0.225605
vt 0.100523 0.381664
vt 0.151847 0.434222
vt 0.139798 0.437445
vt 0.334248 0.643018
vt 0.344994 0.647576
vt 0.294973 0.698799
vt 0.282924 0.456230
vt 0.287375 0.445226
vt 0.344994 0.504231
vt 0.151847 0.194876
vt 0.100523 0.247435
vt 0.089777 0.242876
vt 0.100523 0.643018
vt 0.151847 0.695576
vt 0.147396 0.706580
vt 0.334248 0.381664
vt 0.344994 0.386222
vt 0.334248 0.247435
vt 0.282924 0.194876
vt 0.287375 0.183872
vt 0.100523 0.508789
vt 0.089777 0.504231
vt 0.147396 0.445226
vt 0.158142 0.445226
vt 0.282924 0.434222
vt 0.151847 0.456230
vt 0.089777 0.647576
vt 0.282924 0.695576
vt 0.276629 0.706580
vt 0.334248 0.508789
vt 0.958133 0.328241
vt 0.924578 0.328241
vt 0.924578 0.211258
vt 0.977539 0.671759
vt 1.000000 0.671759
vt 1.000000 0.833449
vt 0.659473 0.745262
vt 0.405824 0.672174
vt 0.477196 0.412425
vt 0.999019 0.645248
vt 0.976558 0.645248
vt 0.976558 0.483558
vt 0.955078 0.883017
vt 0.977539 0.883017
vt 0.977539 1.000000
vt 0.977539 0.833449
vt 1.000000 0.960070
vt 0.958133 0.000000
vt 0.980594 0.000000
vt 0.980594 0.161690
vt 0.955078 0.671759
vt 0.999019 0.483558
vt 0.976558 0.356936
vt 0.958133 0.161690
vt 0.980594 0.288312
vt 0.402699 0.353356
vt 0.476550 0.084585
vt 0.739009 0.160212
vt 0.921522 0.960071
vt 0.887966 0.960071
vt 0.887966 0.833449
vt 0.955078 0.960070
vt 0.921522 0.833449
vt 0.958133 0.211258
vt 0.924578 0.000000
vt 0.976558 0.518626
vt 0.943002 0.518626
vt 0.943002 0.645248
vt 0.955078 0.833449
vt 0.921522 0.671759
vt 0.943002 0.671759
vt 0.906272 0.000000
vt 0.089777 0.386222
vt 0.147396 0.183872
vt 0.344994 0.242876
vt 0.659473 0.412425
vt 0.730845 0.485513
vt 0.730845 0.672174
vt 0.477196 0.745262
vt 0.405824 0.485513
vt 0.955078 1.000000
vt 0.977539 0.960070
vt 0.999019 0.356936
vt 0.958133 0.288312
vt 0.739009 0.353356
vt 0.665159 0.428983
vt 0.476550 0.428983
vt 0.402699 0.160212
vt 0.665158 0.084585
vn 0.000000 0.000000 1.000000
vn 0.000000 -0.707100 -0.707100
vn 0.000000 0.707100 0.707100
vn 0.000000 0.707100 -0.707100
vn 0.000000 0.000000 -1.000000
vn 0.000000 1.000000 0.000000
vn 0.000000 -1.000000 0.000000
vn 0.000000 -0.707100 0.707100
vn -0.573300 0.757000 -0.313500
vn 0.573300 0.757000 -0.313500
vn -0.707100 0.500000 -0.500000
vn 0.000000 0.923900 -0.382700
vn 0.707100 0.500000 -0.500000
vn 0.707100 -0.500000 -0.500000
vn -0.707100 -0.500000 -0.500000
vn 0.707100 0.500000 0.500000
vn -0.707100 0.500000 0.500000
vn -0.707100 -0.500000 0.500000
vn 0.707100 -0.500000 0.500000
vn -0.707100 0.000000 0.707100
vn -0.707100 0.707100 0.000000
vn -0.707100 0.000000 -0.707100
vn -0.707100 -0.707100 0.000000
vn 0.707100 -0.707100 0.000000
vn 0.707100 0.000000 0.707100
vn 0.707100 0.707100 0.000000
vn 0.707100 0.000000 -0.707100
vn 1.000000 -0.000000 0.000000
vn -1.000000 0.000000 0.000000
usemtl Material.001
s off
f 6/1/1 4/2/1 19/3/1
f 12/4/2 10/5/2 29/6/2
f 8/7/3 6/1/3 25/8/3
f 34/9/4 31/10/4 17/11/4
f 24/12/1 18/12/1 42/12/1
f 31/7/5 29/6/5 10/5/5
f 32/13/6 14/14/6 8/15/6
f 12/7/7 27/16/7 21/17/7
f 21/17/8 19/18/8 4/19/8
f 13/20/9 14/14/9 15/21/9
f 32/13/10 33/22/10 34/9/10
f 16/23/11 13/24/11 15/25/11
f 32/13/12 34/9/12 15/21/12
f 30/26/13 31/27/13 34/28/13
f 26/29/14 27/30/14 29/31/14
f 11/32/15 9/33/15 10/34/15
f 24/35/16 22/36/16 23/37/16
f 5/38/17 6/39/17 8/30/17
f 3/40/18 1/41/18 2/42/18
f 18/43/19 19/44/19 21/45/19
f 6/39/20 5/38/20 3/40/20
f 14/46/21 13/24/21 7/47/21
f 10/34/22 9/33/22 16/23/22
f 2/42/23 1/41/23 11/32/23
f 20/48/24 21/45/24 27/30/24
f 24/35/25 25/49/25 19/44/25
f 22/36/26 33/50/26 32/51/26
f 28/52/27 29/31/27 31/27/27
f 3/53/4 57/54/4 58/55/4
f 36/56/1 44/57/1 45/58/1
f 26/12/1 28/12/1 37/12/1
f 20/12/1 26/12/1 38/12/1
f 18/12/1 20/12/1 41/12/1
f 30/12/1 33/12/1 35/12/1
f 22/12/1 24/12/1 39/12/1
f 28/12/1 30/12/1 36/12/1
f 33/12/1 22/12/1 40/12/1
f 47/59/28 49/60/28 45/61/28
f 42/62/5 50/63/5 47/64/5
f 41/65/4 49/66/4 50/67/4
f 37/68/3 45/58/3 46/69/3
f 40/70/7 48/71/7 43/72/7
f 38/73/6 46/56/6 49/66/6
f 39/74/2 47/64/2 48/75/2
f 35/76/8 43/72/8 44/77/8
f 51/78/29 53/79/29 57/80/29
f 16/81/8 51/82/8 52/83/8
f 7/84/2 55/81/2 56/85/2
f 1/86/6 58/55/6 53/87/6
f 9/88/1 54/89/1 51/4/1
f 13/85/7 52/83/7 55/7/7
f 11/63/3 53/90/3 54/89/3
f 5/91/5 56/85/5 57/92/5
f 25/8/1 6/1/1 19/3/1
f 27/19/2 12/4/2 29/6/2
f 23/16/3 8/7/3 25/8/3
f 15/21/4 34/9/4 17/11/4
f 39/12/1 24/12/1 42/12/1
f 17/93/5 31/7/5 10/5/5
f 23/94/6 32/13/6 8/15/6
f 2/6/7 12/7/7 21/17/7
f 2/6/8 21/17/8 4/19/8
f 17/95/11 16/23/11 15/25/11
f 14/14/12 32/13/12 15/21/12
f 33/50/13 30/26/13 34/28/13
f 28/52/14 26/29/14 29/31/14
f 12/96/15 11/32/15 10/34/15
f 25/49/16 24/35/16 23/37/16
f 7/47/17 5/38/17 8/30/17
f 4/97/18 3/40/18 2/42/18
f 20/48/19 18/43/19 21/45/19
f 4/97/20 6/39/20 3/40/20
f 8/30/21 14/46/21 7/47/21
f 17/95/22 10/34/22 16/23/22
f 12/96/23 2/42/23 11/32/23
f 26/29/24 20/48/24 27/30/24
f 18/43/25 24/35/25 19/44/25
f 23/37/26 22/36/26 32/51/26
f 30/26/27 28/52/27 31/27/27
f 1/86/4 3/53/4 58/55/4
f 37/68/1 36/56/1 45/58/1
f 38/12/1 26/12/1 37/12/1
f 41/12/1 20/12/1 38/12/1
f 42/12/1 18/12/1 41/12/1
f 36/12/1 30/12/1 35/12/1
f 40/12/1 22/12/1 39/12/1
f 37/12/1 28/12/1 36/12/1
f 35/12/1 33/12/1 40/12/1
f 45/61/28 44/98/28 43/99/28
f 43/99/28 48/100/28 47/59/28
f 47/59/28 50/101/28 49/60/28
f 49/60/28 46/102/28 45/61/28
f 45/61/28 43/99/28 47/59/28
f 39/74/5 42/62/5 47/64/5
f 42/103/4 41/65/4 50/67/4
f 38/104/3 37/68/3 46/69/3
f 35/76/7 40/70/7 43/72/7
f 41/65/6 38/73/6 49/66/6
f 40/105/2 39/74/2 48/75/2
f 36/106/8 35/76/8 44/77/8
f 57/80/29 56/107/29 55/108/29
f 55/108/29 52/109/29 51/78/29
f 51/78/29 54/110/29 53/79/29
f 53/79/29 58/111/29 57/80/29
f 57/80/29 55/108/29 51/78/29
f 13/85/8 16/81/8 52/83/8
f 5/91/2 7/84/2 56/85/2
f 11/70/6 1/86/6 53/87/6
f 16/75/1 9/88/1 51/4/1
f 7/92/7 13/85/7 55/7/7
f 9/88/3 11/63/3 54/89/3
f 3/73/5 5/91/5 57/92/5
