# Blender v2.76 (sub 0) OBJ File: ''
# www.blender.org
mtllib pyramid.mtl
o Cube.001
v 63.579819 -19.966892 63.579811
v -63.579830 -19.966892 63.579803
v -63.579796 -19.966888 -63.579845
v 63.579803 -17.084528 63.579845
v -63.579838 -17.084528 63.579796
v -0.554845 74.593285 -0.554825
v -0.554853 74.593285 0.554856
v 0.554836 74.593285 0.554856
v -63.579803 -17.084524 -63.579830
v 63.579838 -17.084524 -63.579803
v 0.554836 74.593285 -0.554825
v 63.579819 -19.966888 -63.579819
vt 0.448250 0.000000
vt 0.448250 0.500000
vt 0.000000 0.500000
vt 0.989839 1.000000
vt 0.989839 0.500000
vt 1.000000 0.500000
vt 0.785497 0.004363
vt 0.781585 0.004363
vt 0.781585 0.000000
vt 0.666667 1.000000
vt 0.656506 1.000000
vt 0.656506 0.500000
vt 0.323173 1.000000
vt 0.323173 0.500000
vt 0.333334 0.500000
vt 0.000000 0.747818
vt 0.771424 0.500000
vt 0.448250 0.252182
vt 0.448250 0.247818
vt 0.666667 0.747818
vt 0.333334 0.747818
vt 0.781585 0.500000
vt 0.000000 0.000000
vt 1.000000 1.000000
vt 0.785497 0.000000
vt 0.666667 0.500000
vt 0.333334 1.000000
vt 0.000000 0.752182
vt 0.771424 0.000000
vt 0.666667 0.752182
vt 0.333334 0.752182
vn 0.000000 -1.000000 -0.000000
vn -0.000000 -0.000000 1.000000
vn 0.000000 1.000000 0.000000
vn -1.000000 0.000000 -0.000000
vn 1.000000 -0.000000 0.000000
vn 0.824100 0.566500 0.000000
vn 0.000000 0.566500 -0.824100
vn -0.000000 0.566500 0.824100
vn -0.824100 0.566500 -0.000000
vn 0.000000 0.000000 -1.000000
usemtl Material.001
s 1
f 1/1/1 2/2/1 3/3/1
f 4/4/2 5/5/2 2/6/2
f 6/7/3 7/8/3 8/9/3
f 2/10/4 5/11/4 9/12/4
f 10/13/5 4/14/5 1/15/5
f 8/16/6 4/14/6 10/13/6
f 9/17/7 6/18/7 11/19/7
f 7/20/8 5/5/8 4/4/8
f 6/21/9 9/12/9 5/11/9
f 12/9/10 3/22/10 9/17/10
f 12/23/1 1/1/1 3/3/1
f 1/24/2 4/4/2 2/6/2
f 11/25/3 6/7/3 8/9/3
f 3/26/4 2/10/4 9/12/4
f 12/27/5 10/13/5 1/15/5
f 11/28/6 8/16/6 10/13/6
f 10/29/7 9/17/7 11/19/7
f 8/30/8 7/20/8 4/4/8
f 7/31/9 6/21/9 5/11/9
f 10/29/10 12/9/10 9/17/10
