# Blender v2.76 (sub 0) OBJ File: 'pyramid.blend'
# www.blender.org
mtllib pyramid.mtl
o Cube
v 7.717200 -2.423544 -7.717200
v 7.717200 -2.423544 7.717199
v -7.717201 -2.423544 7.717198
v -7.717197 -2.423544 -7.717203
v 0.067345 9.053994 -0.067344
v 7.717202 -2.073688 -7.717198
v 0.067345 9.053994 0.067347
v 7.717198 -2.073688 7.717203
v -0.067347 9.053994 0.067347
v -7.717202 -2.073688 7.717197
v -0.067346 9.053994 -0.067344
v -7.717198 -2.073688 -7.717201
vt 0.448250 0.000000
vt 0.448250 0.500000
vt 0.000000 0.500000
vt 0.989839 1.000000
vt 0.989839 0.500000
vt 1.000000 0.500000
vt 0.785497 0.004363
vt 0.781585 0.004363
vt 0.781585 0.000000
vt 0.666667 1.000000
vt 0.656506 1.000000
vt 0.656506 0.500000
vt 0.323173 1.000000
vt 0.323173 0.500000
vt 0.333334 0.500000
vt 0.000000 0.747818
vt 0.771424 0.500000
vt 0.448250 0.252182
vt 0.448250 0.247818
vt 0.666667 0.747818
vt 0.333334 0.747818
vt 0.781585 0.500000
vt 0.000000 0.000000
vt 1.000000 1.000000
vt 0.785497 0.000000
vt 0.666667 0.500000
vt 0.333334 1.000000
vt 0.000000 0.752182
vt 0.771424 0.000000
vt 0.666667 0.752182
vt 0.333334 0.752182
vn 0.000000 -1.000000 -0.000000
vn -0.000000 0.000000 1.000000
vn 0.000000 1.000000 0.000000
vn -1.000000 -0.000000 -0.000000
vn 1.000000 0.000000 0.000000
vn 0.824100 0.566500 0.000000
vn 0.000000 0.566500 -0.824100
vn -0.000000 0.566500 0.824100
vn -0.824100 0.566500 -0.000000
vn 0.000000 0.000000 -1.000000
usemtl Material
s off
f 2/1/1 3/2/1 4/3/1
f 8/4/2 10/5/2 3/6/2
f 11/7/3 9/8/3 7/9/3
f 3/10/4 10/11/4 12/12/4
f 6/13/5 8/14/5 2/15/5
f 7/16/6 8/14/6 6/13/6
f 12/17/7 11/18/7 5/19/7
f 9/20/8 10/5/8 8/4/8
f 11/21/9 12/12/9 10/11/9
f 1/9/10 4/22/10 12/17/10
f 1/23/1 2/1/1 4/3/1
f 2/24/2 8/4/2 3/6/2
f 5/25/3 11/7/3 7/9/3
f 4/26/4 3/10/4 12/12/4
f 1/27/5 6/13/5 2/15/5
f 5/28/6 7/16/6 6/13/6
f 6/29/7 12/17/7 5/19/7
f 7/30/8 9/20/8 8/4/8
f 9/31/9 11/21/9 10/11/9
f 6/29/10 1/9/10 12/17/10
