# Blender v2.77 (sub 0) OBJ File: 'box2.blend'
# www.blender.org
mtllib box2.mtl
o Cube
v 6.185970 -1.000000 3.526279
v 6.185970 -1.000000 -3.526279
v -6.185971 -1.000000 -3.526278
v -6.185968 -1.000000 3.526280
v 6.185973 1.000000 3.526277
v 6.185966 1.000000 -3.526281
v -6.185973 1.000000 -3.526278
v -6.185970 1.000000 3.526279
v 5.498159 1.000000 3.134193
v 5.498153 1.000000 -3.134196
v -5.498157 1.019479 3.134195
v -5.498159 1.019479 -3.134194
v 5.498159 -0.572388 3.134193
v 5.498153 -0.572388 -3.134196
v -5.498157 -0.552908 3.134195
v -5.498159 -0.552908 -3.134194
vn 0.0000 1.0000 0.0000
vn -0.0008 -0.9997 0.0248
vn -1.0000 -0.0000 0.0000
vn 0.0000 0.0000 1.0000
vn 1.0000 0.0000 -0.0000
vn -0.0000 -0.0000 -1.0000
vn 0.0000 -1.0000 0.0000
vn 0.0283 -0.9996 -0.0000
vn -0.0008 -0.9997 -0.0248
vn -0.0018 -1.0000 0.0000
usemtl Material
s off
f 1//1 2//1 3//1 4//1
f 7//2 6//2 10//2 12//2
f 1//3 5//3 6//3 2//3
f 2//4 6//4 7//4 3//4
f 3//5 7//5 8//5 4//5
f 5//6 1//6 4//6 8//6
f 12//6 10//6 14//6 16//6
f 6//7 5//7 9//7 10//7
f 8//8 7//8 12//8 11//8
f 5//9 8//9 11//9 9//9
f 13//10 15//10 16//10 14//10
f 10//5 9//5 13//5 14//5
f 11//3 12//3 16//3 15//3
f 9//4 11//4 15//4 13//4
