# Blender v2.77 (sub 0) OBJ File: 'box2.blend'
# www.blender.org
mtllib curvedbox.mtl
o Cube
v 6.320465 -1.000000 3.526279
v 6.320465 -1.000000 -3.526279
v -6.051477 -1.000000 -3.526278
v -6.051474 -1.000000 3.526280
v 6.320467 1.000000 3.526277
v 6.320460 1.000000 -3.526281
v -6.051478 1.000000 -3.526278
v -6.051476 1.000000 3.526279
v 5.632654 1.000000 3.134193
v 5.632648 1.000000 -3.134196
v -5.363662 1.019479 3.134195
v 5.613031 -0.276296 3.134192
v 5.613024 -0.276296 -3.134196
v -5.361013 0.423438 3.134194
v -5.363663 1.019479 1.610988
v -5.361014 0.423438 1.616026
v -2.923022 1.017823 -3.134194
v -4.106418 1.019479 -2.738834
v -4.479528 1.013122 -3.262155
v -3.142002 1.018252 -3.120722
v -3.372533 1.018651 -3.081225
v -3.598904 1.018994 -3.018396
v -3.805686 1.019258 -2.936514
v -3.978790 1.019423 -2.841161
v -4.104510 0.345555 -2.738302
v -2.925151 0.270794 -3.134193
v -3.977562 0.337629 -2.840766
v -3.805202 0.326780 -2.936248
v -3.599178 0.313746 -3.018239
v -3.373527 0.299416 -3.081154
v -3.143629 0.284765 -3.120704
v -5.277671 1.019479 -0.362711
v -5.363663 1.019479 0.540931
v -5.299927 1.019479 -0.230674
v -5.320667 1.019479 -0.076755
v -5.338477 1.019479 0.088559
v -5.352142 1.019479 0.254001
v -5.360733 1.019479 0.408297
v -5.361014 0.423438 0.551009
v -5.275348 0.418128 -0.352643
v -5.358095 0.423257 0.418374
v -5.349537 0.422727 0.264078
v -5.335924 0.421883 0.098634
v -5.318181 0.420783 -0.066681
v -5.297520 0.419502 -0.220604
v -4.202292 1.019479 -2.641258
v -4.815032 1.019479 -1.811158
v -4.310474 1.019479 -2.524118
v -4.426569 1.019479 -2.385334
v -4.542665 1.019479 -2.234364
v -4.650848 1.019479 -2.081496
v -4.743747 1.019479 -1.937149
v -4.812920 0.389465 -1.806032
v -4.203536 0.351693 -2.636750
v -4.741962 0.385067 -1.932063
v -4.649531 0.379337 -2.076485
v -4.541926 0.372667 -2.229455
v -4.426481 0.365512 -2.380549
v -4.311062 0.358358 -2.519469
v -4.886236 1.019479 -1.673138
v -5.196508 1.019479 -0.787906
v -4.947214 1.019479 -1.545268
v -5.009896 1.019479 -1.395413
v -5.070012 1.019479 -1.233784
v -5.123464 1.019479 -1.071396
v -5.166609 1.019479 -0.919315
v -5.194018 0.413087 -0.780337
v -4.885016 0.393934 -1.665665
v -5.164236 0.411241 -0.911752
v -5.121264 0.408577 -1.063844
v -5.068029 0.405278 -1.226247
v -5.008160 0.401567 -1.387896
v -4.945738 0.397697 -1.537773
vn 0.0000 1.0000 0.0000
vn -0.7133 -0.0034 -0.7009
vn -1.0000 0.0000 0.0000
vn 0.0000 0.0000 1.0000
vn 1.0000 0.0000 -0.0000
vn -0.0000 -0.0000 -1.0000
vn 0.0000 -0.9990 0.0454
vn 0.0000 -1.0000 0.0000
vn -0.0630 -0.9980 -0.0004
vn -0.9824 -0.0069 -0.1867
vn 0.9999 -0.0154 -0.0000
vn 0.0112 -0.9999 0.0037
vn -0.8887 -0.0072 -0.4585
vn -1.0000 -0.0044 0.0000
vn 0.0002 -0.9994 0.0346
vn 0.0017 -0.9998 0.0201
vn 0.0026 -0.9999 0.0148
vn 0.0034 -0.9999 0.0118
vn 0.0044 -0.9999 0.0097
vn 0.0059 -1.0000 0.0079
vn -0.6281 -0.0016 -0.7781
vn -0.4846 -0.0007 -0.8747
vn -0.3698 -0.0001 -0.9291
vn -0.2686 0.0003 -0.9633
vn -0.1695 0.0004 -0.9855
vn -0.0616 0.0002 -0.9981
vn -0.9861 -0.0066 -0.1662
vn -0.9910 -0.0062 -0.1335
vn -0.9942 -0.0059 -0.1071
vn -0.9966 -0.0056 -0.0823
vn -0.9984 -0.0053 -0.0556
vn -0.9997 -0.0048 -0.0221
vn -0.7346 -0.0041 -0.6785
vn -0.7670 -0.0048 -0.6416
vn -0.7927 -0.0055 -0.6096
vn -0.8163 -0.0062 -0.5777
vn -0.8409 -0.0067 -0.5412
vn -0.8703 -0.0069 -0.4924
vn -0.9026 -0.0073 -0.4304
vn -0.9225 -0.0073 -0.3859
vn -0.9372 -0.0073 -0.3486
vn -0.9498 -0.0069 -0.3127
vn -0.9620 -0.0068 -0.2729
vn -0.9751 -0.0066 -0.2219
vn -0.7160 -0.0026 -0.6981
vn -0.0021 -0.9981 0.0620
vn -0.0021 -1.0000 -0.0037
vn -0.0639 -0.9980 0.0000
vn -0.0625 -0.9980 0.0000
vn -0.0636 -0.9980 0.0000
vn -0.0639 -0.9980 -0.0020
vn -0.0638 -0.9980 -0.0016
vn -0.0635 -0.9980 -0.0012
vn -0.0633 -0.9980 -0.0008
vn -0.0632 -0.9980 -0.0006
vn -0.0619 -0.9981 0.0000
vn -0.0628 -0.9980 -0.0002
vn -0.0627 -0.9980 -0.0001
vn -0.0626 -0.9980 -0.0001
vn -0.0626 -0.9980 -0.0000
vn -0.0636 -0.9980 -0.0005
vn -0.0634 -0.9980 -0.0010
vn -0.0631 -0.9980 -0.0005
vn -0.0629 -0.9980 -0.0003
vn -0.0638 -0.9980 -0.0018
vn -0.0632 -0.9980 -0.0007
vn -0.0636 -0.9980 -0.0014
vn -0.0018 -0.9986 -0.0527
vn -0.9822 -0.0064 -0.1875
vn 0.0283 -0.9996 0.0000
vn 0.0072 -1.0000 0.0066
vn 0.0072 -0.9999 0.0070
vn 0.0313 -0.9995 0.0007
vn 0.0075 -0.9999 0.0069
vn 0.0081 -0.9999 0.0068
vn 0.0282 -0.9996 -0.0000
vn 0.0214 -0.9998 0.0012
vn 0.0087 -0.9999 0.0067
vn 0.0080 -1.0000 0.0057
vn 0.0193 -0.9998 0.0016
vn 0.0177 -0.9998 0.0019
vn 0.0084 -1.0000 0.0054
vn 0.0088 -0.9999 0.0050
vn 0.0163 -0.9999 0.0022
vn 0.0149 -0.9999 0.0025
vn 0.0092 -0.9999 0.0047
vn 0.0095 -0.9999 0.0045
vn 0.0141 -0.9999 0.0027
vn 0.0132 -0.9999 0.0030
vn 0.0101 -0.9999 0.0042
vn 0.0106 -0.9999 0.0040
vn 0.0120 -0.9999 0.0034
vn -0.8896 -0.0067 -0.4567
vn -0.6255 -0.0024 -0.7802
vn -0.4825 -0.0014 -0.8759
vn -0.3682 -0.0006 -0.9298
vn -0.2674 -0.0001 -0.9636
vn -0.1689 0.0001 -0.9856
vn -0.0614 0.0001 -0.9981
vn -0.9862 -0.0067 -0.1655
vn -0.9911 -0.0064 -0.1330
vn -0.9943 -0.0060 -0.1067
vn -0.9966 -0.0057 -0.0820
vn -0.9985 -0.0054 -0.0554
vn -0.9997 -0.0048 -0.0220
vn -0.7372 -0.0032 -0.6757
vn -0.7693 -0.0038 -0.6389
vn -0.7947 -0.0046 -0.6070
vn -0.8180 -0.0053 -0.5752
vn -0.8424 -0.0060 -0.5389
vn -0.8715 -0.0064 -0.4904
vn -0.9034 -0.0069 -0.4287
vn -0.9232 -0.0068 -0.3843
vn -0.9378 -0.0069 -0.3472
vn -0.9503 -0.0073 -0.3113
vn -0.9623 -0.0071 -0.2718
vn -0.9753 -0.0068 -0.2209
usemtl Material
s off
f 2//1 4//1 1//1
f 18//2 54//2 46//2
f 5//3 2//3 1//3
f 6//4 3//4 2//4
f 7//5 4//5 3//5
f 1//6 8//6 5//6
f 6//7 17//7 7//7
f 5//8 10//8 6//8
f 70//9 71//9 26//9
f 8//8 9//8 5//8
f 32//10 67//10 40//10
f 9//11 13//11 10//11
f 7//12 64//12 65//12
f 9//4 14//4 12//4
f 47//13 68//13 60//13
f 11//14 16//14 14//14
f 15//14 39//14 16//14
f 17//15 20//15 19//15
f 20//16 21//16 19//16
f 21//17 22//17 19//17
f 22//18 23//18 19//18
f 23//19 24//19 19//19
f 24//20 18//20 19//20
f 25//21 24//21 27//21
f 27//22 23//22 28//22
f 28//23 22//23 29//23
f 29//24 21//24 30//24
f 30//25 20//25 31//25
f 31//26 17//26 26//26
f 40//27 34//27 32//27
f 45//28 35//28 34//28
f 44//29 36//29 35//29
f 43//30 37//30 36//30
f 42//31 38//31 37//31
f 41//32 33//32 38//32
f 46//33 59//33 48//33
f 48//34 58//34 49//34
f 49//35 57//35 50//35
f 50//36 56//36 51//36
f 51//37 55//37 52//37
f 52//38 53//38 47//38
f 60//39 73//39 62//39
f 62//40 72//40 63//40
f 63//41 71//41 64//41
f 71//42 65//42 64//42
f 70//43 66//43 65//43
f 69//44 61//44 66//44
f 10//6 26//6 17//6
f 2//1 3//1 4//1
f 18//45 25//45 54//45
f 5//3 6//3 2//3
f 6//4 7//4 3//4
f 7//5 8//5 4//5
f 1//6 4//6 8//6
f 19//46 7//46 17//46
f 6//47 10//47 17//47
f 5//8 9//8 10//8
f 13//48 12//48 26//48
f 16//49 39//49 26//49
f 12//50 14//50 16//50
f 31//51 26//51 59//51
f 29//51 30//51 54//51
f 27//51 28//51 25//51
f 54//51 25//51 28//51
f 58//52 59//52 26//52
f 56//53 57//53 26//53
f 53//54 55//54 26//54
f 73//55 68//55 26//55
f 71//9 72//9 26//9
f 69//56 70//56 67//56
f 40//57 67//57 26//57
f 44//58 45//58 26//58
f 42//59 43//59 26//59
f 39//60 41//60 26//60
f 26//61 12//61 16//61
f 28//51 29//51 54//51
f 59//51 30//51 31//51
f 55//62 56//62 26//62
f 72//63 73//63 26//63
f 67//64 70//64 26//64
f 43//58 44//58 26//58
f 26//60 41//60 42//60
f 54//65 30//65 59//65
f 68//66 53//66 26//66
f 45//58 40//58 26//58
f 58//67 26//67 57//67
f 8//68 11//68 9//68
f 32//69 61//69 67//69
f 9//11 12//11 13//11
f 11//70 8//70 15//70
f 7//71 19//71 50//71
f 19//72 18//72 46//72
f 15//70 8//70 33//70
f 33//73 8//73 38//73
f 19//74 46//74 48//74
f 19//75 48//75 49//75
f 38//76 8//76 7//76
f 37//77 38//77 7//77
f 19//78 49//78 50//78
f 7//79 50//79 51//79
f 36//80 37//80 7//80
f 35//81 36//81 7//81
f 7//82 51//82 52//82
f 7//83 52//83 47//83
f 34//84 35//84 7//84
f 32//85 34//85 7//85
f 7//86 47//86 60//86
f 7//87 60//87 62//87
f 61//88 32//88 7//88
f 66//89 61//89 7//89
f 7//90 62//90 63//90
f 7//91 63//91 64//91
f 65//92 66//92 7//92
f 9//4 11//4 14//4
f 47//93 53//93 68//93
f 11//14 15//14 16//14
f 15//14 33//14 39//14
f 25//94 18//94 24//94
f 27//95 24//95 23//95
f 28//96 23//96 22//96
f 29//97 22//97 21//97
f 30//98 21//98 20//98
f 31//99 20//99 17//99
f 40//100 45//100 34//100
f 45//101 44//101 35//101
f 44//102 43//102 36//102
f 43//103 42//103 37//103
f 42//104 41//104 38//104
f 41//105 39//105 33//105
f 46//106 54//106 59//106
f 48//107 59//107 58//107
f 49//108 58//108 57//108
f 50//109 57//109 56//109
f 51//110 56//110 55//110
f 52//111 55//111 53//111
f 60//112 68//112 73//112
f 62//113 73//113 72//113
f 63//114 72//114 71//114
f 71//115 70//115 65//115
f 70//116 69//116 66//116
f 69//117 67//117 61//117
f 10//6 13//6 26//6
