# Blender v2.76 (sub 0) OBJ File: ''
# www.blender.org
mtllib bot_curves_right.mtl
o Right_Cube.000
v -13.259689 1.191430 2.158693
v -13.259689 -0.808570 2.158693
v -13.259689 -0.808570 6.158693
v -12.880721 -0.768052 2.654430
v -13.153606 -0.808570 2.158693
v -13.153606 1.072147 2.158693
v -13.259689 1.191430 6.158693
v -9.259689 -0.808570 6.158693
v -10.268494 -0.734039 5.453729
v -10.268494 1.146679 5.453728
v -9.870043 1.120075 5.705861
v -11.554018 -0.699822 4.356396
v -11.126977 -0.703033 4.765778
v -11.638659 1.293201 4.439821
v -12.047187 1.288006 4.001990
v -10.692908 -0.714587 5.136301
v -10.692908 1.166131 5.136301
v -12.633968 1.140857 3.056235
v -12.322276 1.162121 3.484879
v -12.322276 -0.718597 3.484879
v -11.957622 1.175640 3.923890
v -11.957622 -0.705077 3.923890
v -11.554018 1.180895 4.356396
v -11.126977 1.177684 4.765777
v -12.880721 1.112666 2.654431
v -12.633968 -0.739860 3.056235
v -9.259689 1.072147 6.052610
v -9.259689 1.191430 6.158693
v -12.984543 1.225212 2.712207
v -12.733705 1.253464 3.120862
v -12.416776 1.274574 3.556931
v -11.206386 1.289938 4.854223
v -10.766365 1.278325 5.229794
v -10.334641 1.258783 5.552611
v -10.142542 1.246444 5.674025
v -9.259689 1.191430 6.158693
v -13.259689 1.191430 2.158693
v -9.259689 -0.808570 6.052610
v -9.870043 -0.760642 5.705861
vt 0.000000 0.000000
vt 1.000000 0.000000
vt 1.000000 1.000000
vn -1.000000 0.000000 0.000000
vn 0.876000 0.000000 -0.482200
vn 0.000000 0.000000 1.000000
vn 0.534700 0.000000 -0.845000
vn 0.026400 -0.999000 -0.035300
vn -0.037800 0.999000 0.023500
vn 0.000000 0.000000 -1.000000
vn 0.598900 -0.000000 -0.800800
vn 0.808800 0.000000 -0.588100
vn 0.769200 0.000000 -0.639000
vn 0.731100 0.000000 -0.682300
vn 0.692000 -0.000000 -0.721900
vn 0.649200 -0.000000 -0.760600
vn 0.852100 0.000000 -0.523300
vn 1.000000 0.000000 0.000000
vn 0.562900 0.725600 -0.395700
vn 0.538900 0.726300 -0.426800
vn 0.517600 0.726600 -0.451800
vn 0.498000 0.726600 -0.473400
vn 0.497900 0.726800 -0.473200
vn 0.498000 0.726500 -0.473500
vn 0.478200 0.726800 -0.493100
vn 0.478200 0.726700 -0.493100
vn 0.457000 0.726700 -0.512800
vn 0.457100 0.726700 -0.512900
vn 0.456800 0.727000 -0.512700
vn 0.431900 0.727100 -0.533600
vn 0.432700 0.726400 -0.534000
vn 0.432500 0.726500 -0.533900
vn 0.401800 0.725800 -0.558400
vn 0.430300 0.599900 -0.674500
vn 0.690900 0.614400 -0.380900
vn 0.494000 0.000000 -0.869500
vn 0.106300 -0.994300 -0.000000
vn -0.078300 -0.996900 -0.000000
vn 0.000000 -0.996700 0.081500
vn 0.000000 -0.994500 -0.105200
vn 0.000000 -0.994400 -0.105300
vn 0.000000 -0.994500 -0.105100
vn 0.112400 -0.993700 0.000700
vn 0.000000 -0.994500 -0.105000
vn 0.077000 -0.997000 -0.006500
vn 0.007900 -0.997400 -0.071700
vn 0.054500 -0.998400 -0.014500
vn 0.016500 -0.998600 -0.050400
vn 0.038500 -0.999000 -0.023800
vn -0.000300 0.275700 0.961200
vn 0.212400 -0.452000 0.866400
vn 0.000000 0.993600 0.112800
vn -0.121900 0.992500 0.000000
vn -0.001500 0.994600 0.103400
vn -0.113100 0.993600 0.000700
vn -0.008200 0.997400 0.071300
vn -0.076300 0.997100 0.007200
vn -0.016200 0.998600 0.049900
vn -0.053700 0.998400 0.014500
vn -0.025800 0.999100 0.034800
vn 0.563900 0.724100 -0.397100
vn 0.540000 0.724300 -0.428600
vn 0.518200 0.725600 -0.452800
vn 0.498100 0.726300 -0.473700
vn 0.456700 0.727000 -0.512600
vn 0.431800 0.727300 -0.533500
vn 0.399300 0.727600 -0.557800
vn 0.386700 0.675700 -0.627600
vn 0.576500 0.725100 -0.376600
usemtl Material.001
s 1
f 1/1/1 2/2/1 3/3/1
f 4/1/2 5/2/2 6/3/2
f 7/1/3 3/2/3 8/3/3
f 9/1/4 10/2/4 11/3/4
f 3/1/5 12/2/5 13/3/5
f 14/1/6 15/2/6 7/3/6
f 6/1/7 5/2/7 2/3/7
f 16/1/8 17/2/8 10/3/8
f 18/1/9 19/2/9 20/3/9
f 19/1/10 21/2/10 22/3/10
f 21/1/11 23/2/11 12/3/11
f 12/1/12 23/2/12 24/3/12
f 13/1/13 24/2/13 17/3/13
f 25/1/14 18/2/14 26/3/14
f 27/1/15 28/2/15 8/3/15
f 29/1/16 30/2/16 18/3/16
f 30/1/17 31/2/17 19/3/17
f 31/1/18 15/2/18 21/3/18
f 15/1/19 14/2/20 23/3/21
f 32/1/22 24/2/22 23/3/23
f 33/1/24 17/2/25 24/3/26
f 34/1/27 10/2/28 17/3/29
f 35/1/30 11/2/30 10/3/30
f 36/1/31 27/2/31 11/3/31
f 6/1/32 37/2/32 29/3/32
f 27/1/33 38/2/33 39/3/33
f 7/1/1 1/2/1 3/3/1
f 25/1/2 4/2/2 6/3/2
f 28/1/3 7/2/3 8/3/3
f 39/1/4 9/2/4 11/3/4
f 3/1/34 2/2/34 4/3/34
f 38/1/35 8/2/35 39/3/35
f 2/1/36 5/2/36 4/3/36
f 39/1/37 8/2/38 3/3/39
f 3/1/40 4/2/40 26/3/40
f 9/1/41 39/2/37 3/3/39
f 3/1/42 26/2/42 20/3/42
f 16/1/43 9/2/43 3/3/43
f 3/1/44 20/2/44 22/3/44
f 13/1/45 16/2/45 3/3/45
f 3/1/46 22/2/46 12/3/46
f 7/1/3 28/2/3 36/3/3
f 29/1/47 37/2/48 1/3/48
f 7/1/49 36/2/49 35/3/49
f 29/1/50 1/2/50 7/3/50
f 7/1/51 35/2/51 34/3/51
f 30/1/52 29/2/52 7/3/52
f 7/1/53 34/2/53 33/3/53
f 31/1/54 30/2/54 7/3/54
f 7/1/55 33/2/55 32/3/55
f 15/1/56 31/2/56 7/3/56
f 7/1/57 32/2/57 14/3/57
f 2/1/7 1/2/48 37/3/48
f 37/1/7 6/2/7 2/3/7
f 9/1/8 16/2/8 10/3/8
f 26/1/9 18/2/9 20/3/9
f 20/1/10 19/2/10 22/3/10
f 22/1/11 21/2/11 12/3/11
f 13/1/12 12/2/12 24/3/12
f 16/1/13 13/2/13 17/3/13
f 4/1/14 25/2/14 26/3/14
f 27/1/3 36/2/3 28/3/3
f 8/1/15 38/2/15 27/3/15
f 25/1/58 29/2/58 18/3/58
f 18/1/59 30/2/59 19/3/59
f 19/1/60 31/2/60 21/3/60
f 21/1/61 15/2/19 23/3/21
f 14/1/23 32/2/22 23/3/23
f 32/1/62 33/2/24 24/3/26
f 33/1/63 34/2/27 17/3/29
f 34/1/64 35/2/64 10/3/64
f 35/1/65 36/2/65 11/3/65
f 25/1/66 6/2/66 29/3/66
f 11/1/33 27/2/33 39/3/33
