# Blender v2.76 (sub 0) OBJ File: ''
# www.blender.org
mtllib lanes1.mtl
o Cylinder.001
v 9.404080 0.908167 -0.347947
v 9.473290 0.908167 -0.354763
v 9.473290 0.081992 -0.354763
v 9.609053 0.908167 -0.327759
v 9.670386 0.908167 -0.294975
v 9.670386 0.081992 -0.294975
v 9.724146 0.908167 -0.250856
v 9.724146 0.081992 -0.250856
v 9.768266 0.908167 -0.197096
v 9.768266 0.081992 -0.197096
v 9.801049 0.908167 -0.135762
v 9.801049 0.081992 -0.135762
v 9.821238 0.908167 -0.069211
v 9.821238 0.081992 -0.069211
v 9.828053 0.908167 -0.000000
v 9.828053 0.081992 -0.000000
v 9.821238 0.908167 0.069211
v 9.821238 0.081992 0.069211
v 9.801049 0.908167 0.135762
v 9.801049 0.081992 0.135762
v 9.768266 0.908167 0.197096
v 9.768266 0.081992 0.197096
v 9.724146 0.908167 0.250856
v 9.724146 0.081992 0.250856
v 9.670386 0.908167 0.294975
v 9.670386 0.081992 0.294975
v 9.609053 0.908167 0.327759
v 9.609053 0.081992 0.327759
v 9.542501 0.908167 0.347947
v 9.542501 0.081992 0.347947
v 9.473290 0.908167 0.354763
v 9.473290 0.081992 0.354763
v 9.404079 0.908167 0.347947
v 9.404079 0.081992 0.347947
v 9.337528 0.908167 0.327758
v 9.337528 0.081992 0.327758
v 9.276195 0.908167 0.294975
v 9.276195 0.081992 0.294975
v 9.222435 0.908167 0.250855
v 9.222435 0.081992 0.250855
v 9.178315 0.908167 0.197096
v 9.178315 0.081992 0.197096
v 8.211267 0.908167 0.186672
v 8.211267 0.081992 0.186672
v 8.191078 0.908167 0.095165
v 8.191078 0.081992 0.095165
v 8.184262 0.908167 -0.000000
v 8.184262 0.081992 -0.000000
v 8.191078 0.908167 -0.095165
v 8.191078 0.081992 -0.095165
v 8.211267 0.908167 -0.186673
v 8.211267 0.081992 -0.186673
v 9.178316 0.908167 -0.197096
v 9.178316 0.081992 -0.197096
v 9.222435 0.908167 -0.250856
v 9.222435 0.081992 -0.250856
v 9.276195 0.908167 -0.294975
v 9.276195 0.081992 -0.294975
v 9.337529 0.908167 -0.327759
v 9.337529 0.081992 -0.327759
v 9.404080 0.081992 -0.347947
v 9.542501 0.908167 -0.347947
v 9.609053 0.081992 -0.327759
v 7.996447 0.907158 -0.358593
v 8.066404 0.907158 -0.351702
v 8.066404 0.080982 -0.351702
v 9.218813 1.147413 -0.112652
v 9.282742 1.147413 0.190549
v 9.282742 1.147413 -0.190549
v 7.926489 0.907158 -0.351703
v 7.996447 0.080982 -0.358593
v 8.133674 0.907158 -0.331296
v 8.195670 0.907158 -0.298159
v 8.195670 0.080982 -0.298159
v 8.250010 0.907158 -0.253563
v 8.250010 0.080982 -0.253563
v 8.294605 0.907158 -0.199223
v 8.294605 0.080982 -0.199223
v 8.327744 0.907158 -0.137228
v 8.327744 0.080982 -0.137228
v 8.348149 0.907158 -0.069958
v 8.348149 0.080982 -0.069958
v 8.355040 0.907158 -0.000000
v 8.355040 0.080982 -0.000000
v 8.348149 0.907158 0.069958
v 8.348149 0.080982 0.069958
v 8.327744 0.907158 0.137227
v 8.327744 0.080982 0.137227
v 8.294605 0.907158 0.199223
v 8.294605 0.080982 0.199223
v 8.250010 0.907158 0.253563
v 8.250010 0.080982 0.253563
v 8.195670 0.907158 0.298159
v 8.195670 0.080982 0.298159
v 8.133674 0.907158 0.331297
v 8.133674 0.080982 0.331297
v 8.066404 0.907158 0.351702
v 8.066404 0.080982 0.351702
v 7.996447 0.907158 0.358593
v 7.996447 0.080982 0.358593
v 7.926488 0.907158 0.351702
v 7.926488 0.080982 0.351702
v 7.859219 0.907158 0.331296
v 7.859219 0.080982 0.331296
v 7.797223 0.907158 0.298159
v 7.797223 0.080982 0.298159
v 7.742883 0.907158 0.253563
v 7.742883 0.080982 0.253563
v 7.698287 0.907158 0.199223
v 7.698287 0.080982 0.199223
v 7.665150 0.907158 0.137227
v 7.665150 0.080982 0.137227
v 7.644744 0.907158 0.069958
v 7.644744 0.080982 0.069958
v 7.637854 0.907158 -0.000000
v 7.637854 0.080982 -0.000000
v 7.644744 0.907158 -0.069958
v 7.644744 0.080982 -0.069958
v 7.665150 0.907158 -0.137228
v 7.665150 0.080982 -0.137228
v 7.698288 0.907158 -0.199224
v 7.698288 0.080982 -0.199224
v 7.742884 0.907158 -0.253564
v 7.742884 0.080982 -0.253564
v 7.797224 0.907158 -0.298159
v 7.797224 0.080982 -0.298159
v 7.859220 0.907158 -0.331297
v 7.859220 0.080982 -0.331297
v 7.926489 0.080982 -0.351703
v 8.133674 0.080982 -0.331296
v 7.891857 1.146403 0.252502
v 8.269753 1.146403 -0.000000
v 8.101036 1.146403 -0.252502
v 9.473290 1.147413 -0.269477
v 9.525863 1.147413 -0.264299
v 9.576415 1.147413 -0.248964
v 9.623004 1.147413 -0.224062
v 9.663839 1.147413 -0.190549
v 9.697352 1.147413 -0.149713
v 9.722255 1.147413 -0.103124
v 9.737590 1.147413 -0.052572
v 9.742767 1.147413 -0.000000
v 9.737590 1.147413 0.052572
v 9.722255 1.147413 0.103124
v 9.697352 1.147413 0.149713
v 9.663839 1.147413 0.190549
v 9.623004 1.147413 0.224062
v 9.576415 1.147413 0.248964
v 9.525863 1.147413 0.264299
v 9.473290 1.147413 0.269477
v 9.420718 1.147413 0.264299
v 9.370166 1.147413 0.248964
v 9.323577 1.147413 0.224062
v 9.218813 1.147413 0.112652
v 8.279620 1.147413 0.102529
v 8.275295 1.147413 0.082925
v 8.269355 1.147413 -0.000000
v 8.275295 1.147413 -0.082926
v 8.279620 1.147413 -0.102529
v 9.323577 1.147413 -0.224062
v 9.370167 1.147413 -0.248965
v 9.420718 1.147413 -0.264299
v 7.996447 1.146403 -0.273306
v 8.049767 1.146403 -0.268055
v 8.148288 1.146403 -0.227246
v 8.189703 1.146403 -0.193257
v 8.223693 1.146403 -0.151841
v 8.248949 1.146403 -0.104590
v 8.264502 1.146403 -0.053320
v 8.264502 1.146403 0.053319
v 8.248949 1.146403 0.104590
v 8.223693 1.146403 0.151841
v 8.189703 1.146403 0.193257
v 8.148288 1.146403 0.227246
v 8.101036 1.146403 0.252502
v 8.049766 1.146403 0.268055
v 7.996446 1.146403 0.273306
v 7.943127 1.146403 0.268055
v 7.844605 1.146403 0.227246
v 7.803190 1.146403 0.193257
v 7.769201 1.146403 0.151841
v 7.743944 1.146403 0.104589
v 7.728392 1.146403 0.053319
v 7.723140 1.146403 -0.000000
v 7.728392 1.146403 -0.053319
v 7.743945 1.146403 -0.104590
v 7.769201 1.146403 -0.151841
v 7.803190 1.146403 -0.193257
v 7.844606 1.146403 -0.227246
v 7.891857 1.146403 -0.252502
v 7.943128 1.146403 -0.268055
v 9.542501 0.081992 -0.347947
vt 0.000000 0.000000
vt 1.000000 0.000000
vt 1.000000 1.000000
vn -0.098000 -0.000000 -0.995200
vn 0.471400 -0.000000 -0.881900
vn 0.634400 0.000000 -0.773000
vn 0.773000 -0.000000 -0.634400
vn 0.881900 -0.000000 -0.471400
vn 0.956900 -0.000000 -0.290300
vn 0.995200 0.000000 -0.098000
vn 0.995200 0.000000 0.098000
vn 0.956900 -0.000000 0.290300
vn 0.881900 -0.000000 0.471400
vn 0.773000 0.000000 0.634400
vn 0.634400 0.000000 0.773000
vn 0.471400 -0.000000 0.881900
vn 0.290300 0.000000 0.956900
vn 0.098000 -0.000000 0.995200
vn -0.098000 0.000000 0.995200
vn -0.290300 -0.000000 0.956900
vn -0.471400 -0.000000 0.881900
vn -0.634400 -0.000000 0.773000
vn -0.773000 0.000000 0.634400
vn -0.010800 0.000000 0.999900
vn -0.976500 -0.000000 0.215400
vn -0.997400 -0.000000 0.071400
vn -0.997400 -0.000000 -0.071400
vn -0.976500 0.000000 -0.215400
vn -0.010800 -0.000000 -0.999900
vn -0.773000 0.000000 -0.634400
vn -0.634400 0.000000 -0.773000
vn -0.471400 0.000000 -0.881900
vn -0.290300 -0.000000 -0.956900
vn 0.290300 0.000000 -0.956900
vn 0.098000 -0.000000 -0.995200
vn 0.000000 1.000000 -0.000000
vn -0.000000 -1.000000 0.000000
vn -0.881900 -0.000000 0.471400
vn -0.956900 0.000000 0.290300
vn -0.995200 -0.000000 0.098000
vn -0.995200 -0.000000 -0.098000
vn -0.956900 0.000000 -0.290300
vn -0.881900 -0.000000 -0.471400
vn 0.092400 0.334300 -0.937900
vn 0.273600 0.334300 -0.901900
vn 0.444300 0.334300 -0.831200
vn 0.597900 0.334300 -0.728500
vn 0.728500 0.334300 -0.597900
vn 0.831200 0.334300 -0.444300
vn 0.901900 0.334300 -0.273600
vn 0.937900 0.334300 -0.092400
vn 0.937900 0.334300 0.092400
vn 0.901900 0.334300 0.273600
vn 0.901900 0.334400 0.273600
vn 0.831200 0.334300 0.444300
vn 0.728500 0.334300 0.597900
vn 0.597900 0.334300 0.728500
vn 0.444300 0.334300 0.831200
vn 0.273600 0.334300 0.901900
vn 0.092400 0.334300 0.937900
vn -0.092400 0.334300 0.937900
vn -0.273600 0.334300 0.901900
vn -0.444300 0.334300 0.831200
vn -0.597900 0.334300 0.728500
vn -0.728500 0.334300 0.597900
vn -0.010200 0.334300 0.942400
vn -0.920300 0.334300 0.203000
vn -0.920300 0.334300 0.203100
vn -0.920300 0.334400 0.203000
vn -0.940000 0.334300 0.067300
vn -0.940000 0.334300 -0.067300
vn -0.920300 0.334400 -0.203000
vn -0.920300 0.334300 -0.203000
vn -0.010200 0.334300 -0.942400
vn -0.728500 0.334300 -0.597900
vn -0.597900 0.334300 -0.728500
vn -0.444300 0.334300 -0.831200
vn -0.273600 0.334300 -0.901900
vn -0.092400 0.334300 -0.937900
vn 0.092400 0.334400 -0.937900
vn 0.831200 0.334400 -0.444300
vn 0.901900 0.334400 -0.273600
vn 0.092400 0.334400 0.937900
vn -0.444300 0.334400 0.831200
vn -0.831200 0.334300 0.444300
vn -0.901900 0.334300 0.273600
vn -0.937900 0.334400 0.092400
vn -0.937900 0.334300 0.092400
vn -0.937900 0.334400 -0.092400
vn -0.937900 0.334300 -0.092400
vn -0.901900 0.334400 -0.273600
vn -0.831200 0.334300 -0.444300
vn -0.092400 0.334400 -0.937900
vn 0.597900 0.334400 -0.728500
usemtl Material.014
s 1
f 1/1/1 2/2/1 3/3/1
f 4/1/2 5/2/2 6/3/2
f 5/1/3 7/2/3 8/3/3
f 7/1/4 9/2/4 10/3/4
f 9/1/5 11/2/5 12/3/5
f 11/1/6 13/2/6 14/3/6
f 13/1/7 15/2/7 16/3/7
f 15/1/8 17/2/8 18/3/8
f 17/1/9 19/2/9 20/3/9
f 19/1/10 21/2/10 22/3/10
f 21/1/11 23/2/11 24/3/11
f 23/1/12 25/2/12 26/3/12
f 25/1/13 27/2/13 28/3/13
f 27/1/14 29/2/14 30/3/14
f 29/1/15 31/2/15 32/3/15
f 31/1/16 33/2/16 34/3/16
f 33/1/17 35/2/17 36/3/17
f 35/1/18 37/2/18 38/3/18
f 37/1/19 39/2/19 40/3/19
f 39/1/20 41/2/20 42/3/20
f 41/1/21 43/2/21 44/3/21
f 43/1/22 45/2/22 46/3/22
f 45/1/23 47/2/23 48/3/23
f 47/1/24 49/2/24 50/3/24
f 49/1/25 51/2/25 52/3/25
f 51/1/26 53/2/26 54/3/26
f 53/1/27 55/2/27 56/3/27
f 55/1/28 57/2/28 58/3/28
f 57/1/29 59/2/29 60/3/29
f 59/1/30 1/2/30 61/3/30
f 62/1/31 4/2/31 63/3/31
f 64/1/32 65/2/32 66/3/32
f 67/1/33 68/2/33 69/3/33
f 16/1/34 42/2/34 54/3/34
f 70/1/1 64/2/1 71/3/1
f 72/1/2 73/2/2 74/3/2
f 73/1/3 75/2/3 76/3/3
f 75/1/4 77/2/4 78/3/4
f 77/1/5 79/2/5 80/3/5
f 79/1/6 81/2/6 82/3/6
f 81/1/7 83/2/7 84/3/7
f 83/1/8 85/2/8 86/3/8
f 85/1/9 87/2/9 88/3/9
f 87/1/10 89/2/10 90/3/10
f 89/1/11 91/2/11 92/3/11
f 91/1/12 93/2/12 94/3/12
f 93/1/13 95/2/13 96/3/13
f 95/1/14 97/2/14 98/3/14
f 97/1/15 99/2/15 100/3/15
f 99/1/16 101/2/16 102/3/16
f 101/1/17 103/2/17 104/3/17
f 103/1/18 105/2/18 106/3/18
f 105/1/19 107/2/19 108/3/19
f 107/1/20 109/2/20 110/3/20
f 109/1/35 111/2/35 112/3/35
f 111/1/36 113/2/36 114/3/36
f 113/1/37 115/2/37 116/3/37
f 115/1/38 117/2/38 118/3/38
f 117/1/39 119/2/39 120/3/39
f 119/1/40 121/2/40 122/3/40
f 121/1/27 123/2/27 124/3/27
f 123/1/28 125/2/28 126/3/28
f 125/1/29 127/2/29 128/3/29
f 127/1/30 70/2/30 129/3/30
f 65/1/31 72/2/31 130/3/31
f 131/1/33 132/2/33 133/3/33
f 98/1/34 122/2/34 129/3/34
f 2/1/41 134/2/41 135/3/41
f 62/1/42 135/2/42 136/3/42
f 5/1/43 4/2/43 136/3/43
f 5/1/44 137/2/44 138/3/44
f 7/1/45 138/2/45 139/3/45
f 9/1/46 139/2/46 140/3/46
f 11/1/47 140/2/47 141/3/47
f 15/1/48 13/2/48 141/3/48
f 15/1/49 142/2/49 143/3/49
f 19/1/50 17/2/50 143/3/51
f 19/1/52 144/2/52 145/3/52
f 23/1/53 21/2/53 145/3/53
f 25/1/54 23/2/54 146/3/54
f 27/1/55 25/2/55 147/3/55
f 27/1/56 148/2/56 149/3/56
f 31/1/57 29/2/57 149/3/57
f 33/1/58 31/2/58 150/3/58
f 35/1/59 33/2/59 151/3/59
f 37/1/60 35/2/60 152/3/60
f 37/1/61 153/2/61 68/3/61
f 41/1/62 39/2/62 68/3/62
f 41/1/63 154/2/63 155/3/63
f 45/1/64 43/2/65 155/3/66
f 47/1/67 45/2/67 156/3/67
f 47/1/68 157/2/68 158/3/68
f 49/1/69 158/2/70 159/3/70
f 53/1/71 51/2/71 159/3/71
f 53/1/72 67/2/72 69/3/72
f 57/1/73 55/2/73 69/3/73
f 59/1/74 57/2/74 160/3/74
f 1/1/75 59/2/75 161/3/75
f 2/1/76 1/2/76 162/3/76
f 64/1/41 163/2/77 164/3/77
f 65/1/42 164/2/42 133/3/42
f 72/1/43 133/2/43 165/3/43
f 75/1/44 73/2/44 165/3/44
f 75/1/45 166/2/45 167/3/45
f 77/1/78 167/2/46 168/3/46
f 81/1/47 79/2/79 168/3/47
f 83/1/48 81/2/48 169/3/48
f 83/1/49 132/2/49 170/3/49
f 85/1/50 170/2/50 171/3/50
f 87/1/52 171/2/52 172/3/52
f 91/1/53 89/2/53 172/3/53
f 91/1/54 173/2/54 174/3/54
f 93/1/55 174/2/55 175/3/55
f 95/1/56 175/2/56 176/3/56
f 99/1/57 97/2/57 176/3/80
f 101/1/58 99/2/58 177/3/58
f 101/1/59 178/2/59 131/3/59
f 103/1/60 131/2/81 179/3/60
f 107/1/61 105/2/61 179/3/61
f 109/1/62 107/2/62 180/3/62
f 109/1/82 181/2/82 182/3/82
f 111/1/83 182/2/83 183/3/83
f 115/1/84 113/2/84 183/3/85
f 115/1/86 184/2/87 185/3/87
f 117/1/88 185/2/88 186/3/88
f 121/1/89 119/2/89 186/3/89
f 123/1/72 121/2/72 187/3/72
f 123/1/73 188/2/73 189/3/73
f 127/1/74 125/2/74 189/3/74
f 70/1/75 127/2/75 190/3/75
f 70/1/76 191/2/90 163/3/90
f 2/1/32 62/2/32 192/3/32
f 61/1/1 1/2/1 3/3/1
f 63/1/2 4/2/2 6/3/2
f 6/1/3 5/2/3 8/3/3
f 8/1/4 7/2/4 10/3/4
f 10/1/5 9/2/5 12/3/5
f 12/1/6 11/2/6 14/3/6
f 14/1/7 13/2/7 16/3/7
f 16/1/8 15/2/8 18/3/8
f 18/1/9 17/2/9 20/3/9
f 20/1/10 19/2/10 22/3/10
f 22/1/11 21/2/11 24/3/11
f 24/1/12 23/2/12 26/3/12
f 26/1/13 25/2/13 28/3/13
f 28/1/14 27/2/14 30/3/14
f 30/1/15 29/2/15 32/3/15
f 32/1/16 31/2/16 34/3/16
f 34/1/17 33/2/17 36/3/17
f 36/1/18 35/2/18 38/3/18
f 38/1/19 37/2/19 40/3/19
f 40/1/20 39/2/20 42/3/20
f 42/1/21 41/2/21 44/3/21
f 44/1/22 43/2/22 46/3/22
f 46/1/23 45/2/23 48/3/23
f 48/1/24 47/2/24 50/3/24
f 50/1/25 49/2/25 52/3/25
f 52/1/26 51/2/26 54/3/26
f 54/1/27 53/2/27 56/3/27
f 56/1/28 55/2/28 58/3/28
f 58/1/29 57/2/29 60/3/29
f 60/1/30 59/2/30 61/3/30
f 192/1/31 62/2/31 63/3/31
f 71/1/32 64/2/32 66/3/32
f 136/1/33 135/2/33 161/3/33
f 134/1/33 162/2/33 161/3/33
f 161/1/33 160/2/33 69/3/33
f 67/1/33 159/2/33 157/3/33
f 161/1/33 69/2/33 68/3/33
f 135/1/33 134/2/33 161/3/33
f 138/1/33 137/2/33 136/3/33
f 140/1/33 139/2/33 138/3/33
f 142/1/33 141/2/33 140/3/33
f 144/1/33 143/2/33 142/3/33
f 146/1/33 145/2/33 144/3/33
f 148/1/33 147/2/33 146/3/33
f 150/1/33 149/2/33 148/3/33
f 152/1/33 151/2/33 148/3/33
f 68/1/33 153/2/33 152/3/33
f 156/1/33 155/2/33 157/3/33
f 154/1/33 68/2/33 67/3/33
f 151/1/33 150/2/33 148/3/33
f 148/1/33 146/2/33 140/3/33
f 144/1/33 142/2/33 140/3/33
f 140/1/33 138/2/33 136/3/33
f 136/1/33 161/2/33 68/3/33
f 159/1/33 158/2/33 157/3/33
f 157/1/33 155/2/33 154/3/33
f 68/1/33 152/2/33 140/3/33
f 146/1/33 144/2/33 140/3/33
f 140/1/33 136/2/33 68/3/33
f 67/1/33 157/2/33 154/3/33
f 152/1/33 148/2/33 140/3/33
f 61/1/34 3/2/34 192/3/34
f 192/1/34 63/2/34 6/3/34
f 6/1/34 8/2/34 14/3/34
f 10/1/34 12/2/34 14/3/34
f 14/1/34 16/2/34 6/3/34
f 18/1/34 20/2/34 22/3/34
f 22/1/34 24/2/34 16/3/34
f 26/1/34 28/2/34 30/3/34
f 30/1/34 32/2/34 38/3/34
f 34/1/34 36/2/34 38/3/34
f 38/1/34 40/2/34 30/3/34
f 42/1/34 44/2/34 46/3/34
f 46/1/34 48/2/34 42/3/34
f 50/1/34 52/2/34 54/3/34
f 54/1/34 56/2/34 58/3/34
f 58/1/34 60/2/34 54/3/34
f 61/1/34 192/2/34 6/3/34
f 8/1/34 10/2/34 14/3/34
f 16/1/34 18/2/34 22/3/34
f 24/1/34 26/2/34 30/3/34
f 32/1/34 34/2/34 38/3/34
f 42/1/34 48/2/34 54/3/34
f 30/1/34 40/2/34 42/3/34
f 16/1/34 24/2/34 30/3/34
f 61/1/34 6/2/34 16/3/34
f 54/1/34 60/2/34 61/3/34
f 48/1/34 50/2/34 54/3/34
f 16/1/34 30/2/34 42/3/34
f 54/1/34 61/2/34 16/3/34
f 129/1/1 70/2/1 71/3/1
f 130/1/2 72/2/2 74/3/2
f 74/1/3 73/2/3 76/3/3
f 76/1/4 75/2/4 78/3/4
f 78/1/5 77/2/5 80/3/5
f 80/1/6 79/2/6 82/3/6
f 82/1/7 81/2/7 84/3/7
f 84/1/8 83/2/8 86/3/8
f 86/1/9 85/2/9 88/3/9
f 88/1/10 87/2/10 90/3/10
f 90/1/11 89/2/11 92/3/11
f 92/1/12 91/2/12 94/3/12
f 94/1/13 93/2/13 96/3/13
f 96/1/14 95/2/14 98/3/14
f 98/1/15 97/2/15 100/3/15
f 100/1/16 99/2/16 102/3/16
f 102/1/17 101/2/17 104/3/17
f 104/1/18 103/2/18 106/3/18
f 106/1/19 105/2/19 108/3/19
f 108/1/20 107/2/20 110/3/20
f 110/1/35 109/2/35 112/3/35
f 112/1/36 111/2/36 114/3/36
f 114/1/37 113/2/37 116/3/37
f 116/1/38 115/2/38 118/3/38
f 118/1/39 117/2/39 120/3/39
f 120/1/40 119/2/40 122/3/40
f 122/1/27 121/2/27 124/3/27
f 124/1/28 123/2/28 126/3/28
f 126/1/29 125/2/29 128/3/29
f 128/1/30 127/2/30 129/3/30
f 66/1/31 65/2/31 130/3/31
f 133/1/33 164/2/33 163/3/33
f 163/1/33 191/2/33 190/3/33
f 190/1/33 189/2/33 188/3/33
f 188/1/33 187/2/33 186/3/33
f 186/1/33 185/2/33 184/3/33
f 184/1/33 183/2/33 186/3/33
f 182/1/33 181/2/33 131/3/33
f 180/1/33 179/2/33 131/3/33
f 131/1/33 178/2/33 177/3/33
f 177/1/33 176/2/33 131/3/33
f 175/1/33 174/2/33 173/3/33
f 173/1/33 172/2/33 171/3/33
f 171/1/33 170/2/33 132/3/33
f 132/1/33 169/2/33 168/3/33
f 168/1/33 167/2/33 166/3/33
f 166/1/33 165/2/33 133/3/33
f 133/1/33 163/2/33 190/3/33
f 190/1/33 188/2/33 133/3/33
f 186/1/33 183/2/33 182/3/33
f 181/1/33 180/2/33 131/3/33
f 131/1/33 176/2/33 175/3/33
f 175/1/33 173/2/33 132/3/33
f 171/1/33 132/2/33 173/3/33
f 168/1/33 166/2/33 132/3/33
f 133/1/33 188/2/33 186/3/33
f 186/1/33 182/2/33 131/3/33
f 131/1/33 175/2/33 132/3/33
f 132/1/33 166/2/33 133/3/33
f 133/1/33 186/2/33 131/3/33
f 129/1/34 71/2/34 66/3/34
f 66/1/34 130/2/34 129/3/34
f 74/1/34 76/2/34 78/3/34
f 78/1/34 80/2/34 82/3/34
f 82/1/34 84/2/34 90/3/34
f 86/1/34 88/2/34 90/3/34
f 90/1/34 92/2/34 98/3/34
f 94/1/34 96/2/34 98/3/34
f 98/1/34 100/2/34 106/3/34
f 102/1/34 104/2/34 106/3/34
f 106/1/34 108/2/34 110/3/34
f 110/1/34 112/2/34 106/3/34
f 114/1/34 116/2/34 118/3/34
f 118/1/34 120/2/34 114/3/34
f 122/1/34 124/2/34 129/3/34
f 126/1/34 128/2/34 129/3/34
f 129/1/34 130/2/34 74/3/34
f 74/1/34 78/2/34 129/3/34
f 84/1/34 86/2/34 90/3/34
f 92/1/34 94/2/34 98/3/34
f 100/1/34 102/2/34 106/3/34
f 106/1/34 112/2/34 114/3/34
f 114/1/34 120/2/34 122/3/34
f 124/1/34 126/2/34 129/3/34
f 129/1/34 78/2/34 98/3/34
f 82/1/34 90/2/34 78/3/34
f 98/1/34 106/2/34 114/3/34
f 114/1/34 122/2/34 98/3/34
f 78/1/34 90/2/34 98/3/34
f 62/1/41 2/2/41 135/3/41
f 4/1/42 62/2/42 136/3/42
f 137/1/43 5/2/43 136/3/43
f 7/1/91 5/2/44 138/3/44
f 9/1/45 7/2/45 139/3/45
f 11/1/46 9/2/46 140/3/46
f 13/1/47 11/2/47 141/3/47
f 142/1/48 15/2/48 141/3/48
f 17/1/49 15/2/49 143/3/49
f 144/1/51 19/2/50 143/3/51
f 21/1/52 19/2/52 145/3/52
f 146/1/53 23/2/53 145/3/53
f 147/1/54 25/2/54 146/3/54
f 148/1/55 27/2/55 147/3/55
f 29/1/56 27/2/56 149/3/56
f 150/1/57 31/2/57 149/3/57
f 151/1/58 33/2/58 150/3/58
f 152/1/59 35/2/59 151/3/59
f 153/1/60 37/2/60 152/3/60
f 39/1/61 37/2/61 68/3/61
f 154/1/62 41/2/62 68/3/62
f 43/1/63 41/2/63 155/3/63
f 156/1/66 45/2/64 155/3/66
f 157/1/67 47/2/67 156/3/67
f 49/1/68 47/2/68 158/3/68
f 51/1/69 49/2/69 159/3/70
f 67/1/71 53/2/71 159/3/71
f 55/1/72 53/2/72 69/3/72
f 160/1/73 57/2/73 69/3/73
f 161/1/74 59/2/74 160/3/74
f 162/1/75 1/2/75 161/3/75
f 134/1/76 2/2/76 162/3/76
f 65/1/41 64/2/41 164/3/77
f 72/1/42 65/2/42 133/3/42
f 73/1/43 72/2/43 165/3/43
f 166/1/44 75/2/44 165/3/44
f 77/1/45 75/2/45 167/3/45
f 79/1/78 77/2/78 168/3/46
f 169/1/47 81/2/47 168/3/47
f 132/1/48 83/2/48 169/3/48
f 85/1/49 83/2/49 170/3/49
f 87/1/50 85/2/50 171/3/50
f 89/1/52 87/2/52 172/3/52
f 173/1/53 91/2/53 172/3/53
f 93/1/54 91/2/54 174/3/54
f 95/1/55 93/2/55 175/3/55
f 97/1/56 95/2/56 176/3/56
f 177/1/80 99/2/57 176/3/80
f 178/1/58 101/2/58 177/3/58
f 103/1/59 101/2/59 131/3/59
f 105/1/60 103/2/60 179/3/60
f 180/1/61 107/2/61 179/3/61
f 181/1/62 109/2/62 180/3/62
f 111/1/82 109/2/82 182/3/82
f 113/1/83 111/2/83 183/3/83
f 184/1/85 115/2/84 183/3/85
f 117/1/86 115/2/86 185/3/87
f 119/1/88 117/2/88 186/3/88
f 187/1/89 121/2/89 186/3/89
f 188/1/72 123/2/72 187/3/72
f 125/1/73 123/2/73 189/3/73
f 190/1/74 127/2/74 189/3/74
f 191/1/75 70/2/75 190/3/75
f 64/1/76 70/2/76 163/3/90
f 3/1/32 2/2/32 192/3/32
