# Blender v2.76 (sub 0) OBJ File: ''
# www.blender.org
mtllib pt_bot_curves.mtl
o Right_Cube.001
v -13.259689 1.191430 2.158693
v -13.259689 -0.808570 2.158693
v -13.259689 -0.808570 6.158693
v -12.880721 -0.768052 2.654430
v -13.153606 -0.808570 2.158693
v -13.153606 1.072147 2.158693
v -13.259689 1.191430 6.158693
v -9.259689 -0.808570 6.158693
v -10.268494 -0.734039 5.453729
v -10.268494 1.146679 5.453728
v -9.870043 1.120075 5.705861
v -11.554018 -0.699822 4.356396
v -11.126977 -0.703033 4.765778
v -11.638659 1.293201 4.439821
v -12.047187 1.288006 4.001990
v -10.692908 -0.714587 5.136301
v -10.692908 1.166131 5.136301
v -12.633968 1.140857 3.056235
v -12.322276 1.162121 3.484879
v -12.322276 -0.718597 3.484879
v -11.957622 1.175640 3.923890
v -11.957622 -0.705077 3.923890
v -11.554018 1.180895 4.356396
v -11.126977 1.177684 4.765777
v -12.880721 1.112666 2.654431
v -12.633968 -0.739860 3.056235
v -9.259689 1.072147 6.052610
v -9.259689 1.191430 6.158693
v -12.984543 1.225212 2.712207
v -12.733705 1.253464 3.120862
v -12.416776 1.274574 3.556931
v -11.206386 1.289938 4.854223
v -10.766365 1.278325 5.229794
v -10.334641 1.258783 5.552611
v -10.142542 1.246444 5.674025
v -9.259689 1.191430 6.158693
v -13.259689 1.191430 2.158693
v -9.259689 -0.808570 6.052610
v -9.870043 -0.760642 5.705861
vt 0.000000 0.000000
vt 1.000000 0.000000
vt 1.000000 1.000000
vn -1.000000 0.000000 0.000000
vn 0.876000 0.000000 -0.482200
vn 0.000000 0.000000 1.000000
vn 0.534700 0.000000 -0.845000
vn 0.026400 -0.999000 -0.035300
vn -0.037800 0.999000 0.023500
vn -0.000000 0.000000 -1.000000
vn 0.598900 -0.000000 -0.800800
vn 0.808800 0.000000 -0.588100
vn 0.769200 0.000000 -0.639000
vn 0.731100 -0.000000 -0.682300
vn 0.692000 -0.000000 -0.721900
vn 0.649200 -0.000000 -0.760600
vn 0.852100 -0.000000 -0.523300
vn 1.000000 -0.000000 0.000000
vn 0.562900 0.725700 -0.395700
vn 0.538900 0.726300 -0.426800
vn 0.517600 0.726600 -0.451800
vn 0.498000 0.726600 -0.473400
vn 0.497900 0.726800 -0.473200
vn 0.498000 0.726500 -0.473500
vn 0.478200 0.726800 -0.493100
vn 0.478200 0.726700 -0.493100
vn 0.456800 0.726900 -0.512700
vn 0.457100 0.726700 -0.512900
vn 0.457000 0.726700 -0.512800
vn 0.432000 0.727100 -0.533600
vn 0.432700 0.726400 -0.534000
vn 0.432500 0.726600 -0.533900
vn 0.401800 0.725800 -0.558400
vn 0.430300 0.599900 -0.674500
vn 0.690900 0.614400 -0.380900
vn 0.494000 -0.000000 -0.869500
vn 0.106300 -0.994300 0.000000
vn -0.078300 -0.996900 -0.000000
vn 0.000000 -0.996700 0.081500
vn 0.000000 -0.994500 -0.105200
vn 0.000000 -0.994400 -0.105300
vn 0.000000 -0.994500 -0.105100
vn 0.112400 -0.993700 0.000700
vn 0.000000 -0.994500 -0.105000
vn 0.077000 -0.997000 -0.006500
vn 0.007900 -0.997400 -0.071700
vn 0.054500 -0.998400 -0.014500
vn 0.016500 -0.998600 -0.050400
vn 0.038500 -0.999000 -0.023800
vn -0.000000 0.142200 0.989800
vn 0.998400 -0.052700 -0.019600
vn 0.000000 0.993600 0.112800
vn -0.121900 0.992500 -0.000000
vn -0.001500 0.994600 0.103400
vn -0.113100 0.993600 0.000700
vn -0.008200 0.997400 0.071300
vn -0.076300 0.997100 0.007200
vn -0.016200 0.998600 0.049900
vn -0.053700 0.998400 0.014500
vn -0.025800 0.999100 0.034800
vn 0.563900 0.724100 -0.397100
vn 0.540000 0.724300 -0.428600
vn 0.518200 0.725600 -0.452800
vn 0.498100 0.726300 -0.473700
vn 0.456700 0.727000 -0.512600
vn 0.431800 0.727300 -0.533500
vn 0.399300 0.727600 -0.557800
vn 0.386700 0.675700 -0.627600
vn 0.576500 0.725100 -0.376600
usemtl Material.007
s 1
f 1/1/1 2/2/1 3/3/1
f 4/1/2 5/2/2 6/3/2
f 7/1/3 3/2/3 8/3/3
f 9/1/4 10/2/4 11/3/4
f 3/1/5 12/2/5 13/3/5
f 14/1/6 15/2/6 7/3/6
f 6/1/7 5/2/7 2/3/7
f 16/1/8 17/2/8 10/3/8
f 18/1/9 19/2/9 20/3/9
f 19/1/10 21/2/10 22/3/10
f 21/1/11 23/2/11 12/3/11
f 12/1/12 23/2/12 24/3/12
f 13/1/13 24/2/13 17/3/13
f 25/1/14 18/2/14 26/3/14
f 27/1/15 28/2/15 8/3/15
f 29/1/16 30/2/16 18/3/16
f 30/1/17 31/2/17 19/3/17
f 31/1/18 15/2/18 21/3/18
f 15/1/19 14/2/20 23/3/21
f 32/1/22 24/2/22 23/3/23
f 33/1/24 17/2/25 24/3/26
f 34/1/27 10/2/28 17/3/29
f 35/1/30 11/2/30 10/3/30
f 36/1/31 27/2/31 11/3/31
f 6/1/32 37/2/32 29/3/32
f 27/1/33 38/2/33 39/3/33
f 7/1/1 1/2/1 3/3/1
f 25/1/2 4/2/2 6/3/2
f 28/1/3 7/2/3 8/3/3
f 39/1/4 9/2/4 11/3/4
f 3/1/34 2/2/34 4/3/34
f 38/1/35 8/2/35 39/3/35
f 2/1/36 5/2/36 4/3/36
f 39/1/37 8/2/38 3/3/39
f 3/1/40 4/2/40 26/3/40
f 9/1/41 39/2/37 3/3/39
f 3/1/42 26/2/42 20/3/42
f 16/1/43 9/2/43 3/3/43
f 3/1/44 20/2/44 22/3/44
f 13/1/45 16/2/45 3/3/45
f 3/1/46 22/2/46 12/3/46
f 7/1/3 28/2/3 36/3/3
f 29/1/47 37/2/48 1/3/48
f 7/1/49 36/2/49 35/3/49
f 29/1/50 1/2/50 7/3/50
f 7/1/51 35/2/51 34/3/51
f 30/1/52 29/2/52 7/3/52
f 7/1/53 34/2/53 33/3/53
f 31/1/54 30/2/54 7/3/54
f 7/1/55 33/2/55 32/3/55
f 15/1/56 31/2/56 7/3/56
f 7/1/57 32/2/57 14/3/57
f 2/1/15 1/2/48 37/3/48
f 37/1/7 6/2/7 2/3/7
f 9/1/8 16/2/8 10/3/8
f 26/1/9 18/2/9 20/3/9
f 20/1/10 19/2/10 22/3/10
f 22/1/11 21/2/11 12/3/11
f 13/1/12 12/2/12 24/3/12
f 16/1/13 13/2/13 17/3/13
f 4/1/14 25/2/14 26/3/14
f 27/1/3 36/2/3 28/3/3
f 8/1/15 38/2/15 27/3/15
f 25/1/58 29/2/58 18/3/58
f 18/1/59 30/2/59 19/3/59
f 19/1/60 31/2/60 21/3/60
f 21/1/61 15/2/19 23/3/21
f 14/1/23 32/2/22 23/3/23
f 32/1/62 33/2/24 24/3/26
f 33/1/63 34/2/27 17/3/29
f 34/1/64 35/2/64 10/3/64
f 35/1/65 36/2/65 11/3/65
f 25/1/66 6/2/66 29/3/66
f 11/1/33 27/2/33 39/3/33
o Left_Cube.002
v -13.264813 1.191430 -3.341307
v -13.264813 -0.808570 -3.341307
v -13.264813 -0.808571 -7.341307
v -12.885845 -0.768052 -3.837044
v -13.158731 -0.808570 -3.341307
v -13.158731 1.090982 -3.341307
v -13.264813 1.191429 -7.341307
v -9.264813 -0.808571 -7.341307
v -10.273618 -0.734039 -6.636342
v -10.273618 1.165513 -6.636342
v -9.875167 1.138910 -6.888474
v -11.559142 -0.699822 -5.539010
v -11.132101 -0.703033 -5.948391
v -11.630419 1.294303 -5.609262
v -12.038169 1.289098 -5.172271
v -10.698032 -0.714587 -6.318914
v -10.698032 1.184965 -6.318914
v -12.639093 1.159692 -4.238849
v -12.327400 1.180956 -4.667492
v -12.327400 -0.718597 -4.667492
v -11.962746 1.194475 -5.106503
v -11.962746 -0.705077 -5.106503
v -11.559142 1.199730 -5.539010
v -11.132101 1.196519 -5.948390
v -12.885845 1.131500 -3.837044
v -12.639092 -0.739860 -4.238849
v -9.264813 1.191429 -7.341307
v -9.264813 1.090981 -7.235224
v -12.973273 1.226276 -3.885698
v -12.723081 1.254518 -4.293271
v -12.406978 1.275653 -4.728168
v -11.198972 1.291048 -6.022871
v -10.759891 1.279444 -6.397645
v -10.329320 1.259915 -6.719611
v -9.828325 1.226876 -7.036511
v -13.264813 1.191430 -3.341307
v -9.264813 -0.808571 -7.235224
v -9.875167 -0.760643 -6.888474
v -9.264813 1.191429 -7.341307
vt 0.000000 0.000000
vt 1.000000 1.000000
vt 1.000000 0.000000
vn -1.000000 -0.000000 0.000000
vn 0.876000 -0.000000 0.482200
vn 0.000000 0.000000 -1.000000
vn 0.534700 0.000000 0.845000
vn 0.026400 -0.999000 0.035300
vn -0.038000 0.999000 -0.023500
vn -0.000000 0.000000 1.000000
vn 0.598900 -0.000000 0.800800
vn 0.808800 0.000000 0.588100
vn 0.769200 0.000000 0.639000
vn 0.731100 -0.000000 0.682300
vn 0.692000 -0.000000 0.721900
vn 0.649200 0.000000 0.760600
vn 0.852100 0.000000 0.523300
vn 1.000000 0.000000 0.000000
vn 0.562800 0.725700 0.395800
vn 0.538800 0.726300 0.426900
vn 0.517600 0.726600 0.451800
vn 0.498300 0.726400 0.473300
vn 0.497700 0.726600 0.473600
vn 0.497900 0.726800 0.473200
vn 0.478200 0.726800 0.493100
vn 0.478200 0.726700 0.493100
vn 0.457100 0.726700 0.512800
vn 0.457100 0.726900 0.512500
vn 0.431800 0.726700 0.534400
vn 0.432800 0.726900 0.533200
vn 0.432700 0.726400 0.534000
vn 0.401100 0.726100 0.558400
vn 0.385300 0.670100 0.634500
vn 0.635100 0.670700 0.383100
vn 0.494000 0.000000 0.869500
vn 0.106300 -0.994300 0.000000
vn -0.078300 -0.996900 0.000000
vn -0.000000 -0.996700 -0.081500
vn 0.000000 -0.994500 0.105200
vn 0.000000 -0.994500 0.105100
vn 0.000000 -0.994400 0.105300
vn 0.112400 -0.993700 -0.000700
vn 0.000000 -0.994500 0.105000
vn 0.077000 -0.997000 0.006500
vn 0.007900 -0.997400 0.071700
vn 0.054500 -0.998400 0.014500
vn 0.016500 -0.998600 0.050400
vn 0.038500 -0.999000 0.023800
vn -0.707100 0.000000 0.707100
vn -0.002100 0.008600 1.000000
vn 0.342700 0.938200 0.048400
vn 0.000000 0.993300 -0.115500
vn -0.118700 0.992900 -0.000000
vn -0.000900 0.994500 -0.105200
vn -0.113000 0.993600 -0.000500
vn -0.008100 0.997400 -0.071400
vn -0.076400 0.997100 -0.007100
vn -0.016300 0.998600 -0.050000
vn -0.053900 0.998400 -0.014500
vn -0.025900 0.999100 -0.034900
vn 0.563900 0.724100 0.397100
vn 0.540000 0.724300 0.428600
vn 0.518200 0.725600 0.452800
vn 0.498100 0.726300 0.473700
vn 0.456800 0.727000 0.512600
vn 0.431900 0.727300 0.533400
vn 0.400900 0.727600 0.556700
vn 0.375300 0.739800 0.558400
vn 0.576500 0.725100 0.376600
usemtl Material.003
s 1
f 40/4/67 42/5/67 41/6/67
f 43/4/68 45/5/68 44/6/68
f 46/4/69 47/5/69 42/6/69
f 48/4/70 50/5/70 49/6/70
f 42/4/71 52/5/71 51/6/71
f 53/4/72 46/5/72 54/6/72
f 45/4/73 41/5/73 44/6/73
f 55/4/74 49/5/74 56/6/74
f 57/4/75 59/5/75 58/6/75
f 58/4/76 61/5/76 60/6/76
f 60/4/77 51/5/77 62/6/77
f 51/4/78 63/5/78 62/6/78
f 52/4/79 56/5/79 63/6/79
f 64/4/80 65/5/80 57/6/80
f 66/4/81 67/5/81 47/6/81
f 68/4/82 57/5/82 69/6/82
f 69/4/83 58/5/83 70/6/83
f 70/4/84 60/5/84 54/6/84
f 54/4/85 62/5/86 53/6/87
f 71/4/88 62/5/89 63/6/88
f 72/4/90 63/5/91 56/6/90
f 73/4/92 56/5/93 49/6/94
f 73/4/95 50/5/95 74/6/95
f 74/4/96 67/5/96 66/6/96
f 45/4/97 68/5/97 75/6/97
f 67/4/98 77/5/98 76/6/98
f 46/4/67 42/5/67 40/6/67
f 64/4/68 45/5/68 43/6/68
f 78/4/67 47/5/69 46/6/69
f 77/4/70 50/5/70 48/6/70
f 42/4/99 43/5/99 41/6/99
f 76/4/100 77/5/100 47/6/100
f 41/4/101 43/5/101 44/6/101
f 77/4/102 42/5/103 47/6/104
f 42/4/105 65/5/105 43/6/105
f 48/4/106 42/5/103 77/6/102
f 42/4/107 59/5/107 65/6/107
f 55/4/108 42/5/108 48/6/108
f 42/4/109 61/5/109 59/6/109
f 52/4/110 42/5/110 55/6/110
f 42/4/111 51/5/111 61/6/111
f 46/4/69 66/5/112 78/6/67
f 68/4/113 40/5/114 75/6/114
f 46/4/115 74/5/115 66/6/115
f 68/4/116 46/5/116 40/6/116
f 46/4/117 73/5/117 74/6/117
f 69/4/118 46/5/118 68/6/118
f 46/4/119 72/5/119 73/6/119
f 70/4/120 46/5/120 69/6/120
f 46/4/121 71/5/121 72/6/121
f 54/4/122 46/5/122 70/6/122
f 46/4/123 53/5/123 71/6/123
f 41/4/73 75/5/114 40/6/114
f 75/4/73 41/5/73 45/6/73
f 48/4/74 49/5/74 55/6/74
f 65/4/75 59/5/75 57/6/75
f 59/4/76 61/5/76 58/6/76
f 61/4/77 51/5/77 60/6/77
f 52/4/78 63/5/78 51/6/78
f 55/4/79 56/5/79 52/6/79
f 43/4/80 65/5/80 64/6/80
f 76/4/81 47/5/81 67/6/81
f 66/4/112 47/5/69 78/6/67
f 64/4/124 57/5/124 68/6/124
f 57/4/125 58/5/125 69/6/125
f 58/4/126 60/5/126 70/6/126
f 60/4/127 62/5/86 54/6/85
f 53/4/89 62/5/89 71/6/88
f 71/4/128 63/5/91 72/6/90
f 72/4/129 56/5/93 73/6/92
f 49/4/130 50/5/130 73/6/130
f 50/4/131 67/5/131 74/6/131
f 64/4/132 68/5/132 45/6/132
f 50/4/98 77/5/98 67/6/98
