# Blender v2.76 (sub 0) OBJ File: 'pinballtablewip.blend'
# www.blender.org
mtllib pt_bot_curves.mtl
o Left_Cube.002
v -13.264813 -0.808570 -7.341307
v -13.264813 1.191430 -7.341307
v -13.264813 -0.808570 -3.341307
v -13.264813 1.191430 -3.341307
v -9.264813 -0.808570 -7.341307
v -9.264813 1.191430 -7.341307
v -13.158731 -0.808570 -3.341307
v -9.264813 -0.808570 -7.235224
v -12.885845 -0.768052 -3.837044
v -9.875167 -0.760642 -6.888474
v -12.639092 -0.739860 -4.238849
v -12.327400 -0.718597 -4.667492
v -11.962746 -0.705077 -5.106503
v -11.559142 -0.699822 -5.539010
v -11.132101 -0.703033 -5.948391
v -10.698032 -0.714587 -6.318914
v -10.273618 -0.734039 -6.636342
v -9.264813 1.090982 -7.235224
v -9.264813 1.191430 -7.341307
v -13.264813 1.191430 -3.341307
v -13.158731 1.090982 -3.341307
v -9.828325 1.226877 -7.036511
v -9.875167 1.138910 -6.888474
v -12.973273 1.226276 -3.885698
v -12.885845 1.131500 -3.837044
v -10.329320 1.259916 -6.719611
v -10.273618 1.165513 -6.636342
v -10.759891 1.279444 -6.397645
v -10.698032 1.184966 -6.318914
v -11.198972 1.291048 -6.022871
v -11.132101 1.196519 -5.948390
v -11.630419 1.294303 -5.609262
v -11.559142 1.199730 -5.539010
v -12.038169 1.289098 -5.172271
v -11.962746 1.194475 -5.106503
v -12.406978 1.275653 -4.728168
v -12.327400 1.180956 -4.667492
v -12.723081 1.254518 -4.293271
v -12.639093 1.159692 -4.238849
vn 1.000000 0.000000 0.000000
vn -0.876000 0.000000 -0.482200
vn 0.000000 0.000000 1.000000
vn -0.534700 0.000000 -0.845000
vn -0.026400 0.999000 -0.035300
vn 0.038000 -0.999000 0.023500
vn 0.000000 0.000000 -1.000000
vn -0.598900 0.000000 -0.800800
vn -0.808800 0.000000 -0.588100
vn -0.769200 0.000000 -0.639000
vn -0.731100 0.000000 -0.682300
vn -0.692000 0.000000 -0.721900
vn -0.649200 0.000000 -0.760600
vn -0.852100 0.000000 -0.523300
vn -1.000000 0.000000 0.000000
vn -0.562800 -0.725700 -0.395800
vn -0.538800 -0.726300 -0.426900
vn -0.517600 -0.726600 -0.451800
vn -0.497900 -0.726800 -0.473200
vn -0.478200 -0.726800 -0.493100
vn -0.457100 -0.726700 -0.512900
vn -0.432700 -0.726400 -0.534000
vn -0.401100 -0.726200 -0.558400
vn -0.385300 -0.670100 -0.634500
vn -0.635100 -0.670700 -0.383100
vn -0.494000 0.000000 -0.869500
vn -0.106300 0.994300 0.000000
vn 0.078300 0.996900 0.000000
vn 0.000000 0.996700 0.081500
vn 0.000000 0.994400 -0.105300
vn -0.112400 0.993700 0.000700
vn -0.000000 0.994500 -0.105000
vn -0.077000 0.997000 -0.006500
vn -0.007900 0.997400 -0.071700
vn -0.054500 0.998400 -0.014500
vn -0.016500 0.998600 -0.050400
vn -0.038500 0.999000 -0.023800
vn 0.000000 -0.993300 0.115500
vn 0.118700 -0.992900 0.000000
vn 0.000900 -0.994500 0.105200
vn 0.113000 -0.993600 0.000500
vn 0.008100 -0.997400 0.071400
vn 0.076400 -0.997100 0.007100
vn 0.016300 -0.998600 0.050000
vn 0.053900 -0.998400 0.014500
vn 0.025900 -0.999100 0.034900
vn -0.563900 -0.724100 -0.397100
vn -0.540000 -0.724300 -0.428600
vn -0.518200 -0.725600 -0.452800
vn -0.498100 -0.726300 -0.473700
vn -0.478200 -0.726700 -0.493100
vn -0.456800 -0.727000 -0.512600
vn -0.431900 -0.727300 -0.533400
vn -0.400900 -0.727600 -0.556700
vn -0.375300 -0.739800 -0.558400
vn -0.576500 -0.725100 -0.376600
usemtl Material.003
s off
f 4//1 3//1 1//1
f 9//2 7//2 21//2
f 2//3 1//3 5//3
f 17//4 27//4 23//4
f 1//5 14//5 15//5
f 32//6 34//6 2//6
f 21//7 7//7 3//7
f 16//8 29//8 27//8
f 39//9 37//9 12//9
f 37//10 35//10 13//10
f 35//11 33//11 14//11
f 14//12 33//12 31//12
f 15//13 31//13 29//13
f 25//14 39//14 11//14
f 19//15 5//15 18//15
f 24//16 38//16 39//16
f 38//17 36//17 37//17
f 36//18 34//18 35//18
f 34//19 32//19 33//19
f 30//20 31//20 33//20
f 28//21 29//21 31//21
f 26//22 27//22 29//22
f 26//23 22//23 23//23
f 22//24 19//24 18//24
f 21//25 20//25 24//25
f 18//26 8//26 10//26
f 2//1 4//1 1//1
f 25//2 9//2 21//2
f 6//3 2//3 5//3
f 10//4 17//4 23//4
f 1//27 3//27 9//27
f 8//28 5//28 10//28
f 3//29 7//29 9//29
f 10//30 5//30 1//30
f 1//31 9//31 11//31
f 17//32 10//32 1//32
f 1//33 11//33 12//33
f 16//34 17//34 1//34
f 1//35 12//35 13//35
f 15//36 16//36 1//36
f 1//37 13//37 14//37
f 2//3 6//3 19//3
f 24//3 20//3 4//3
f 2//38 19//38 22//38
f 24//39 4//39 2//39
f 2//40 22//40 26//40
f 38//41 24//41 2//41
f 2//42 26//42 28//42
f 36//43 38//43 2//43
f 2//44 28//44 30//44
f 34//45 36//45 2//45
f 2//46 30//46 32//46
f 3//3 4//3 20//3
f 20//7 21//7 3//7
f 17//8 16//8 27//8
f 11//9 39//9 12//9
f 12//10 37//10 13//10
f 13//11 35//11 14//11
f 15//12 14//12 31//12
f 16//13 15//13 29//13
f 9//14 25//14 11//14
f 8//15 18//15 5//15
f 19//3 6//3 5//3
f 25//47 24//47 39//47
f 39//48 38//48 37//48
f 37//49 36//49 35//49
f 35//50 34//50 33//50
f 32//51 30//51 33//51
f 30//52 28//52 31//52
f 28//53 26//53 29//53
f 27//54 26//54 23//54
f 23//55 22//55 18//55
f 25//56 21//56 24//56
f 23//26 18//26 10//26
o Right_Cube.001
v -13.259689 -0.808570 6.158693
v -13.259689 1.191430 6.158693
v -13.259689 -0.808570 2.158693
v -13.259689 1.191430 2.158693
v -9.259689 -0.808570 6.158693
v -9.259689 1.191430 6.158693
v -13.153606 -0.808570 2.158693
v -9.259689 -0.808570 6.052610
v -12.880721 -0.768052 2.654430
v -9.870043 -0.760642 5.705861
v -12.633968 -0.739860 3.056235
v -12.322276 -0.718597 3.484879
v -11.957622 -0.705077 3.923890
v -11.554018 -0.699822 4.356396
v -11.126977 -0.703033 4.765778
v -10.692908 -0.714587 5.136301
v -10.268494 -0.734039 5.453729
v -9.259689 1.072147 6.052610
v -9.259689 1.191430 6.158693
v -13.259689 1.191430 2.158693
v -13.153606 1.072147 2.158693
v -10.142542 1.246444 5.674025
v -9.870043 1.120075 5.705861
v -12.984543 1.225212 2.712207
v -12.880721 1.112666 2.654431
v -10.334641 1.258782 5.552611
v -10.268494 1.146679 5.453728
v -10.766365 1.278325 5.229794
v -10.692908 1.166131 5.136301
v -11.206386 1.289938 4.854223
v -11.126977 1.177684 4.765777
v -11.638659 1.293201 4.439821
v -11.554018 1.180895 4.356396
v -12.047187 1.288006 4.001990
v -11.957622 1.175640 3.923890
v -12.416776 1.274574 3.556931
v -12.322276 1.162121 3.484879
v -12.733705 1.253464 3.120862
v -12.633968 1.140857 3.056235
vn -1.000000 0.000000 0.000000
vn 0.876000 0.000000 -0.482200
vn 0.000000 0.000000 1.000000
vn 0.534700 0.000000 -0.845000
vn 0.026400 -0.999000 -0.035300
vn -0.037800 0.999000 0.023500
vn 0.000000 0.000000 -1.000000
vn 0.598900 0.000000 -0.800800
vn 0.808800 0.000000 -0.588100
vn 0.769200 0.000000 -0.639000
vn 0.731100 0.000000 -0.682300
vn 0.692000 0.000000 -0.721900
vn 0.649200 0.000000 -0.760600
vn 0.852100 0.000000 -0.523300
vn 1.000000 0.000000 0.000000
vn 0.562900 0.725600 -0.395700
vn 0.538900 0.726300 -0.426800
vn 0.517600 0.726600 -0.451800
vn 0.497900 0.726800 -0.473200
vn 0.478200 0.726800 -0.493100
vn 0.457100 0.726700 -0.512900
vn 0.432700 0.726400 -0.534000
vn 0.401800 0.725800 -0.558400
vn 0.430300 0.599900 -0.674500
vn 0.690900 0.614400 -0.380900
vn 0.494000 0.000000 -0.869500
vn 0.106300 -0.994300 0.000000
vn -0.078300 -0.996900 0.000000
vn 0.000000 -0.996700 0.081500
vn 0.000000 -0.994400 -0.105300
vn 0.112400 -0.993700 0.000700
vn 0.000000 -0.994500 -0.105000
vn 0.077000 -0.997000 -0.006500
vn 0.007900 -0.997400 -0.071700
vn 0.054500 -0.998400 -0.014500
vn 0.016500 -0.998600 -0.050400
vn 0.038500 -0.999000 -0.023800
vn 0.000000 0.993600 0.112800
vn -0.121900 0.992500 0.000000
vn -0.001500 0.994600 0.103400
vn -0.113100 0.993600 0.000700
vn -0.008200 0.997400 0.071300
vn -0.076300 0.997100 0.007200
vn -0.016200 0.998600 0.049900
vn -0.053700 0.998400 0.014500
vn -0.025800 0.999100 0.034800
vn 0.563900 0.724100 -0.397100
vn 0.540000 0.724300 -0.428600
vn 0.518200 0.725600 -0.452800
vn 0.498100 0.726300 -0.473700
vn 0.478200 0.726700 -0.493100
vn 0.456700 0.727000 -0.512600
vn 0.431800 0.727300 -0.533500
vn 0.399300 0.727600 -0.557800
vn 0.386700 0.675700 -0.627600
vn 0.576500 0.725100 -0.376600
usemtl Material.002
s off
f 43//57 42//57 40//57
f 48//58 46//58 60//58
f 41//59 40//59 44//59
f 56//60 66//60 62//60
f 40//61 53//61 54//61
f 71//62 73//62 41//62
f 60//63 46//63 42//63
f 55//64 68//64 66//64
f 78//65 76//65 51//65
f 76//66 74//66 52//66
f 74//67 72//67 53//67
f 53//68 72//68 70//68
f 54//69 70//69 68//69
f 64//70 78//70 50//70
f 57//71 45//71 44//71
f 63//72 77//72 78//72
f 77//73 75//73 76//73
f 75//74 73//74 74//74
f 73//75 71//75 72//75
f 69//76 70//76 72//76
f 67//77 68//77 70//77
f 65//78 66//78 68//78
f 61//79 62//79 66//79
f 58//80 57//80 62//80
f 60//81 59//81 63//81
f 57//82 47//82 49//82
f 41//57 43//57 40//57
f 64//58 48//58 60//58
f 45//59 41//59 44//59
f 49//60 56//60 62//60
f 40//83 42//83 48//83
f 47//84 44//84 49//84
f 42//85 46//85 48//85
f 49//86 44//86 40//86
f 40//87 48//87 50//87
f 56//88 49//88 40//88
f 40//89 50//89 51//89
f 55//90 56//90 40//90
f 40//91 51//91 52//91
f 54//92 55//92 40//92
f 40//93 52//93 53//93
f 41//59 45//59 58//59
f 63//59 59//59 43//59
f 41//94 58//94 61//94
f 63//95 43//95 41//95
f 41//96 61//96 65//96
f 77//97 63//97 41//97
f 41//98 65//98 67//98
f 75//99 77//99 41//99
f 41//100 67//100 69//100
f 73//101 75//101 41//101
f 41//102 69//102 71//102
f 42//59 43//59 59//59
f 59//63 60//63 42//63
f 56//64 55//64 66//64
f 50//65 78//65 51//65
f 51//66 76//66 52//66
f 52//67 74//67 53//67
f 54//68 53//68 70//68
f 55//69 54//69 68//69
f 48//70 64//70 50//70
f 57//59 58//59 45//59
f 44//71 47//71 57//71
f 64//103 63//103 78//103
f 78//104 77//104 76//104
f 76//105 75//105 74//105
f 74//106 73//106 72//106
f 71//107 69//107 72//107
f 69//108 67//108 70//108
f 67//109 65//109 68//109
f 65//110 61//110 66//110
f 61//111 58//111 62//111
f 64//112 60//112 63//112
f 62//82 57//82 49//82
