# Blender v2.76 (sub 0) OBJ File: 'pinballtablewip.blend'
# www.blender.org
mtllib pt_floor.mtl
o Board_Cube.006
v -13.149479 -0.008578 7.870550
v -13.149479 -0.008578 -7.365715
v 6.044970 -0.008578 7.870550
v 13.333384 -0.008578 2.923609
v 6.807078 -0.008578 7.847574
v 7.560837 -0.008578 7.778895
v 8.297988 -0.008578 7.665269
v 9.010453 -0.008578 7.507937
v 9.690271 -0.008578 7.306393
v 10.329370 -0.008578 7.053834
v 10.920772 -0.008578 6.753459
v 11.458090 -0.008578 6.409879
v 11.936227 -0.008578 6.021122
v 12.352577 -0.008578 5.567881
v 12.701455 -0.008578 5.066186
v 12.977690 -0.008578 4.534390
v 13.177095 -0.008578 3.989298
v 13.296440 -0.008578 3.446968
v 13.293895 -0.008578 -2.873196
v 3.297065 -0.027660 -7.338683
v 13.250802 -0.008578 -3.409412
v 13.122532 -0.008578 -3.931819
v 12.910792 -0.008578 -4.427169
v 12.617363 -0.008578 -4.891612
v 12.244734 -0.008578 -5.321418
v 11.796053 -0.008578 -5.713322
v 11.275089 -0.008578 -6.064851
v 10.686175 -0.008578 -6.374619
v 10.034155 -0.008578 -6.642560
v 9.324332 -0.008578 -6.870076
v 8.562428 -0.008578 -7.060093
v 7.754519 -0.008578 -7.216997
v 6.914008 -0.011250 -7.325144
v 6.054204 -0.019125 -7.371026
v 5.170527 -0.027800 -7.396976
v 4.251979 -0.031978 -7.386895
v -3.881434 -0.008578 -6.122175
v -1.733498 -0.008578 -7.180684
v -3.048669 -0.008578 -6.768528
v -1.868401 -0.008578 -7.171188
v -2.012084 -0.008578 -7.152532
v -2.161010 -0.008578 -7.125176
v -2.311511 -0.008578 -7.089795
v -2.459882 -0.008578 -7.047257
v -2.602468 -0.008578 -6.998612
v -2.735760 -0.008578 -6.945057
v -2.856476 -0.008578 -6.887911
v -2.961642 -0.008578 -6.828581
v -4.409276 -0.008578 -6.570895
v -6.659296 -0.008578 -7.277574
v -4.667595 -0.008578 -6.749396
v -5.006563 -0.008578 -6.917068
v -5.403081 -0.008578 -7.062482
v -5.830128 -0.008578 -7.175730
v -6.258599 -0.008578 -7.249094
v 9.349631 1.172897 7.943438
v 9.261846 1.153175 7.830722
v 8.554383 1.172886 8.119136
v 8.488023 1.153166 8.001667
v 7.733347 1.172878 8.245749
v 7.688698 1.153161 8.124918
vt 0.708123 0.976058
vt 0.960872 0.821167
vt 0.950605 0.843968
vt 1.005525 0.002948
vt 0.976338 0.723260
vt 0.165006 0.441084
vt 0.976348 0.748212
vt 0.973750 0.773027
vt 0.968572 0.797434
vt 0.937373 0.865590
vt 0.921346 0.885799
vt 0.902774 0.904372
vt 0.881534 0.921148
vt 0.856526 0.936103
vt 0.828650 0.948999
vt 0.798941 0.959614
vt 0.768347 0.967759
vt 0.737768 0.973282
vt 0.122937 0.824305
vt 0.115290 0.797180
vt 0.348527 0.992348
vt 0.318655 0.989726
vt 0.290175 0.984298
vt 0.379035 0.992148
vt 0.238271 0.965232
vt 0.215254 0.951757
vt 0.194403 0.935801
vt 0.175806 0.917501
vt 0.159473 0.897015
vt 0.145335 0.874520
vt 0.133237 0.850215
vt 0.106609 0.740269
vt 0.110522 0.769162
vt 0.106571 0.678835
vt 0.108009 0.513913
vt 0.108353 0.509482
vt 0.109204 0.504742
vt 0.110542 0.499808
vt 0.112333 0.494803
vt 0.129509 0.469914
vt 0.114534 0.489849
vt 0.117090 0.485068
vt 0.119938 0.480579
vt 0.123008 0.476493
vt 0.126225 0.472908
vt 0.097489 0.399371
vt 0.006731 0.305492
vt 0.051367 0.363081
vt 0.024579 0.332970
vt -0.005203 0.279726
vt -0.012317 0.255457
vt -0.014887 0.232811
vt 0.000585 -0.001308
vt 0.263308 0.976109
vt 0.105293 0.710207
vt 0.086074 0.289514
vt 0.076905 0.285231
vt 0.098257 0.266795
vt 0.078761 0.312109
vt 0.069963 0.309829
vt 0.089092 0.259838
vn 0.000000 1.000000 0.000000
vn -0.003400 1.000000 0.001900
vn -0.000000 1.000000 -0.000200
vn -0.009800 1.000000 -0.000700
vn 0.003700 1.000000 -0.001900
vn -0.009100 1.000000 -0.000700
vn -0.004600 1.000000 -0.001000
vn 0.004400 1.000000 -0.002100
vn -0.000100 1.000000 -0.000200
vn -0.032600 0.988500 -0.147500
vn -0.023500 0.988000 -0.152500
vn -0.032600 0.988500 -0.147600
vn -0.023500 0.988000 -0.152600
usemtl Material.012
s off
f 4/1/1 8/2/1 9/3/1
f 1/4/1 3/5/1 37/6/1
f 5/7/1 6/8/1 4/1/1
f 7/9/1 8/2/1 4/1/1
f 9/3/1 10/10/1 4/1/1
f 11/11/1 12/12/1 4/1/1
f 13/13/1 14/14/1 12/12/1
f 15/15/1 16/16/1 4/1/1
f 17/17/1 18/18/1 4/1/1
f 4/1/2 32/19/2 33/20/2
f 21/21/1 22/22/1 23/23/1
f 23/23/1 19/24/1 21/21/1
f 25/25/1 26/26/1 19/24/1
f 27/27/1 28/28/1 19/24/1
f 29/29/1 30/30/1 19/24/1
f 31/31/1 32/19/1 19/24/1
f 33/20/3 3/5/3 5/7/3
f 35/32/4 3/5/4 34/33/4
f 20/34/5 38/35/5 3/5/5
f 40/36/1 41/37/1 38/35/1
f 42/38/1 43/39/1 39/40/1
f 44/41/1 45/42/1 39/40/1
f 46/43/1 47/44/1 39/40/1
f 48/45/1 39/40/1 47/44/1
f 37/6/1 49/46/1 53/47/1
f 51/48/1 52/49/1 49/46/1
f 53/47/1 54/50/1 37/6/1
f 55/51/1 50/52/1 37/6/1
f 2/53/1 1/4/1 50/52/1
f 6/8/1 7/9/1 4/1/1
f 10/10/1 11/11/1 4/1/1
f 14/14/1 15/15/1 12/12/1
f 17/17/1 4/1/1 16/16/1
f 23/23/1 24/54/1 19/24/1
f 25/25/1 19/24/1 24/54/1
f 29/29/1 19/24/1 28/28/1
f 34/33/6 3/5/6 33/20/6
f 38/35/1 39/40/1 37/6/1
f 43/39/1 44/41/1 39/40/1
f 46/43/1 39/40/1 45/42/1
f 49/46/1 52/49/1 53/47/1
f 54/50/1 55/51/1 37/6/1
f 3/5/1 38/35/1 37/6/1
f 12/12/1 15/15/1 4/1/1
f 19/24/1 32/19/1 4/1/1
f 27/27/1 19/24/1 26/26/1
f 36/55/7 3/5/7 35/32/7
f 42/38/1 38/35/1 41/37/1
f 37/6/1 50/52/1 1/4/1
f 36/55/8 20/34/8 3/5/8
f 30/30/1 31/31/1 19/24/1
f 42/38/1 39/40/1 38/35/1
f 5/7/9 4/1/9 33/20/9
usemtl Material.012_yellow-green-paint-texture.jpg
f 59/56/10 58/57/10 57/58/10
f 59/56/11 61/59/11 60/60/11
f 56/61/12 57/58/12 58/57/12
f 60/60/13 58/57/13 59/56/13
