# Blender v2.76 (sub 0) OBJ File: ''
# www.blender.org
mtllib table2.mtl
o Cube.004
v 5.000000 -1.000000 -5.000000
v 5.000000 -1.000000 5.000000
v -5.000000 -1.000000 4.999999
v -4.999998 -1.000000 -5.000002
v 4.000002 -0.000000 -3.999998
v -4.000000 -0.000000 -4.000000
v -4.000001 0.000000 3.999999
v 3.999997 0.000000 4.000002
v -4.000001 1.000000 3.999999
v 4.000002 1.000000 -3.999998
v -4.000000 1.000000 -4.000000
v 3.999997 1.000000 4.000002
v -5.000002 1.000000 4.999998
v 5.000002 1.000000 -4.999997
v 4.999997 1.000000 5.000003
v -5.000000 1.000000 -5.000000
v 0.000000 0.000000 0.000000
v 0.000001 -0.000000 -3.999999
v -0.000002 0.000000 4.000000
v -4.000000 -0.000000 -0.000000
v 4.000000 0.000000 0.000002
v -2.000000 0.000000 2.000000
v -2.000000 -0.000000 -4.000000
v 1.999997 0.000000 4.000001
v -4.000001 0.000000 1.999999
v 3.999998 0.000000 2.000002
v 2.000001 -0.000000 -1.999999
v 2.000001 -0.000000 -3.999999
v -2.000001 0.000000 4.000000
v -4.000000 -0.000000 -2.000000
v 4.000001 -0.000000 -1.999998
v -0.000001 0.000000 2.000000
v 1.999999 0.000000 2.000001
v 2.000000 0.000000 0.000001
v -2.000000 0.000000 0.000000
v 0.000001 -0.000000 -1.999999
v -2.000000 -0.000000 -2.000000
v -3.000000 0.000000 3.000000
v -3.000000 -0.000000 -4.000000
v 2.999997 0.000000 4.000001
v -4.000001 0.000000 2.999999
v 3.999998 0.000000 3.000002
v 1.000001 -0.000000 -0.999999
v 1.000001 -0.000000 -3.999999
v -1.000002 0.000000 4.000000
v -4.000000 -0.000000 -1.000000
v 4.000000 -0.000000 -0.999998
v -0.000000 0.000000 1.000000
v 2.999999 0.000000 1.000002
v 3.000000 0.000000 0.000002
v -3.000000 -0.000000 -0.000000
v 0.000001 -0.000000 -2.999999
v -0.999999 -0.000000 -3.000000
v -1.000000 0.000000 1.000000
v -0.999999 -0.000000 -3.999999
v 0.999998 0.000000 4.000001
v -4.000001 0.000000 0.999999
v 3.999999 0.000000 1.000002
v 3.000001 -0.000000 -2.999999
v 3.000002 -0.000000 -3.999998
v -3.000001 0.000000 4.000000
v -4.000000 -0.000000 -3.000000
v 4.000001 -0.000000 -2.999998
v -0.000001 0.000000 3.000000
v 0.999998 0.000000 3.000001
v 1.000000 0.000000 0.000001
v -1.000000 0.000000 0.000000
v 0.000001 -0.000000 -0.999999
v -3.000000 -0.000000 -1.000000
v -3.000000 -0.000000 -2.000000
v -2.000000 -0.000000 -3.000000
v -3.000000 -0.000000 -3.000000
v -2.000000 -0.000000 -1.000000
v -1.000000 -0.000000 -1.000000
v -1.000000 -0.000000 -2.000000
v -3.000000 0.000000 2.000000
v -2.000000 0.000000 1.000000
v -3.000000 0.000000 1.000000
v 2.000000 -0.000000 -0.999999
v 3.000000 -0.000000 -0.999998
v 3.000001 -0.000000 -1.999998
v 1.000000 0.000000 1.000001
v 0.999999 0.000000 2.000001
v 1.999999 0.000000 1.000001
v -2.000001 0.000000 3.000000
v -1.000001 0.000000 3.000000
v -1.000000 0.000000 2.000000
v 1.999998 0.000000 3.000001
v 2.999998 0.000000 3.000001
v 2.999999 0.000000 2.000001
v 1.000001 -0.000000 -1.999999
v 2.000001 -0.000000 -2.999999
v 1.000001 -0.000000 -2.999999
vn -0.000000 1.000000 -0.000000
vn 1.000000 -0.000000 0.000000
vn -0.000000 -0.000000 1.000000
vn -1.000000 -0.000000 -0.000000
vn 0.000000 0.000000 -1.000000
vn -0.000000 -1.000000 0.000000
usemtl Material.013
s 1
f 13//1 9//1 11//1
f 14//2 15//2 2//2
f 15//3 13//3 3//3
f 3//4 13//4 16//4
f 1//5 4//5 16//5
f 15//1 14//1 10//1
f 14//1 16//1 11//1
f 15//1 12//1 9//1
f 16//1 13//1 11//1
f 1//2 14//2 2//2
f 2//3 15//3 3//3
f 4//4 3//4 16//4
f 14//5 1//5 16//5
f 12//1 15//1 10//1
f 10//1 14//1 11//1
f 13//1 15//1 9//1
usemtl Material.014
f 5//1 60//1 59//1
f 8//1 42//1 40//1
f 19//1 64//1 45//1
f 19//1 65//1 64//1
f 21//1 47//1 50//1
f 17//1 67//1 54//1
f 17//1 68//1 67//1
f 18//1 55//1 53//1
f 37//1 70//1 69//1
f 37//1 71//1 70//1
f 23//1 39//1 72//1
f 35//1 73//1 51//1
f 35//1 74//1 73//1
f 36//1 52//1 75//1
f 22//1 76//1 38//1
f 22//1 77//1 76//1
f 35//1 51//1 78//1
f 34//1 79//1 66//1
f 34//1 80//1 79//1
f 31//1 63//1 81//1
f 32//1 82//1 48//1
f 32//1 83//1 82//1
f 33//1 49//1 84//1
f 29//1 85//1 61//1
f 29//1 86//1 85//1
f 32//1 48//1 87//1
f 24//1 88//1 56//1
f 24//1 89//1 88//1
f 26//1 58//1 90//1
f 27//1 91//1 43//1
f 27//1 92//1 91//1
f 28//1 44//1 93//1
f 93//1 52//1 36//1
f 93//1 44//1 52//1
f 44//1 18//1 52//1
f 91//1 93//1 36//1
f 91//1 92//1 93//1
f 92//1 28//1 93//1
f 43//1 68//1 17//1
f 43//1 91//1 68//1
f 91//1 36//1 68//1
f 90//1 49//1 33//1
f 90//1 58//1 49//1
f 58//1 21//1 49//1
f 88//1 90//1 33//1
f 88//1 89//1 90//1
f 89//1 26//1 90//1
f 56//1 65//1 19//1
f 56//1 88//1 65//1
f 88//1 33//1 65//1
f 87//1 54//1 22//1
f 87//1 48//1 54//1
f 48//1 17//1 54//1
f 85//1 87//1 22//1
f 85//1 86//1 87//1
f 86//1 32//1 87//1
f 61//1 38//1 7//1
f 61//1 85//1 38//1
f 85//1 22//1 38//1
f 84//1 50//1 34//1
f 84//1 49//1 50//1
f 49//1 21//1 50//1
f 82//1 84//1 34//1
f 82//1 83//1 84//1
f 83//1 33//1 84//1
f 48//1 66//1 17//1
f 48//1 82//1 66//1
f 82//1 34//1 66//1
f 81//1 59//1 27//1
f 81//1 63//1 59//1
f 63//1 5//1 59//1
f 79//1 81//1 27//1
f 79//1 80//1 81//1
f 80//1 31//1 81//1
f 66//1 43//1 17//1
f 66//1 79//1 43//1
f 79//1 27//1 43//1
f 78//1 57//1 25//1
f 78//1 51//1 57//1
f 51//1 20//1 57//1
f 76//1 78//1 25//1
f 76//1 77//1 78//1
f 77//1 35//1 78//1
f 38//1 41//1 7//1
f 38//1 76//1 41//1
f 76//1 25//1 41//1
f 75//1 53//1 37//1
f 75//1 52//1 53//1
f 52//1 18//1 53//1
f 73//1 75//1 37//1
f 73//1 74//1 75//1
f 74//1 36//1 75//1
f 51//1 69//1 20//1
f 51//1 73//1 69//1
f 73//1 37//1 69//1
f 72//1 62//1 30//1
f 72//1 39//1 62//1
f 39//1 6//1 62//1
f 70//1 72//1 30//1
f 70//1 71//1 72//1
f 71//1 23//1 72//1
f 69//1 46//1 20//1
f 69//1 70//1 46//1
f 70//1 30//1 46//1
f 53//1 71//1 37//1
f 53//1 55//1 71//1
f 55//1 23//1 71//1
f 67//1 74//1 35//1
f 67//1 68//1 74//1
f 68//1 36//1 74//1
f 54//1 77//1 22//1
f 54//1 67//1 77//1
f 67//1 35//1 77//1
f 50//1 80//1 34//1
f 50//1 47//1 80//1
f 47//1 31//1 80//1
f 64//1 83//1 32//1
f 64//1 65//1 83//1
f 65//1 33//1 83//1
f 45//1 86//1 29//1
f 45//1 64//1 86//1
f 64//1 32//1 86//1
f 40//1 89//1 24//1
f 40//1 42//1 89//1
f 42//1 26//1 89//1
f 59//1 92//1 27//1
f 59//1 60//1 92//1
f 60//1 28//1 92//1
usemtl Material.015
f 1//6 2//6 3//6
f 4//6 1//6 3//6
usemtl Material.016
f 9//2 46//2 30//2
f 31//4 47//4 10//4
f 11//3 55//3 18//3
f 9//5 12//5 8//5
f 11//2 9//2 6//2
f 12//4 10//4 8//4
f 10//3 11//3 5//3
f 9//5 19//5 45//5
f 9//2 7//2 41//2
f 62//2 6//2 9//2
f 20//2 46//2 9//2
f 30//2 62//2 9//2
f 9//2 41//2 25//2
f 57//2 20//2 9//2
f 9//2 25//2 57//2
f 10//4 5//4 63//4
f 42//4 8//4 10//4
f 47//4 21//4 10//4
f 26//4 42//4 10//4
f 21//4 58//4 10//4
f 63//4 31//4 10//4
f 26//4 10//4 58//4
f 11//3 6//3 39//3
f 60//3 5//3 11//3
f 18//3 44//3 11//3
f 28//3 60//3 11//3
f 11//3 39//3 23//3
f 23//3 55//3 11//3
f 44//3 28//3 11//3
f 61//5 7//5 9//5
f 9//5 8//5 40//5
f 40//5 24//5 9//5
f 56//5 19//5 9//5
f 45//5 29//5 9//5
f 9//5 24//5 56//5
f 29//5 61//5 9//5
